<svg viewBox="0 0 480 340" fill="none" xmlns="http://www.w3.org/2000/svg" aria-hidden="true">
  <style>
    .svg-float-a { animation: svgFloatUp 6s ease-in-out infinite; }
    .svg-float-b { animation: svgFloatDown 8s ease-in-out infinite; }
    @keyframes svgFloatUp { 0%, 100% { transform: translateY(0); } 50% { transform: translateY(-10px); } }
    @keyframes svgFloatDown { 0%, 100% { transform: translateY(0); } 50% { transform: translateY(10px); } }
  </style>
  <rect width="480" height="340" rx="20" fill="#eef1ff" />
  <!-- Frontend modules — floats up -->
  <g class="svg-float-a">
    <line x1="152" y1="54" x2="178" y2="54" stroke="#b1b2ff" stroke-width="1.5" opacity="0.4" />
    <line x1="302" y1="54" x2="328" y2="54" stroke="#b1b2ff" stroke-width="1.5" opacity="0.4" />
    <!-- Module A -->
    <rect x="28" y="20" width="124" height="68" rx="10" fill="#2c3040" />
    <rect x="42" y="34" width="44" height="6" rx="3" fill="#b1b2ff" opacity="0.65" />
    <rect x="42" y="46" width="76" height="5" rx="2.5" fill="#d2daff" opacity="0.35" />
    <rect x="42" y="57" width="60" height="5" rx="2.5" fill="#d2daff" opacity="0.25" />
    <rect x="42" y="68" width="40" height="5" rx="2.5" fill="#d2daff" opacity="0.18" />
    <!-- Module B (active) -->
    <rect x="178" y="12" width="124" height="84" rx="10" fill="#2c3040" />
    <rect x="178" y="12" width="124" height="84" rx="10" fill="none" stroke="#b1b2ff" stroke-width="2" opacity="0.55" />
    <rect x="192" y="26" width="52" height="6" rx="3" fill="#b1b2ff" opacity="0.8" />
    <rect x="192" y="38" width="88" height="5" rx="2.5" fill="#aac4ff" opacity="0.45" />
    <rect x="192" y="49" width="72" height="5" rx="2.5" fill="#aac4ff" opacity="0.35" />
    <rect x="192" y="60" width="56" height="5" rx="2.5" fill="#d2daff" opacity="0.3" />
    <rect x="192" y="71" width="36" height="5" rx="2.5" fill="#d2daff" opacity="0.2" />
    <rect x="192" y="82" width="60" height="5" rx="2.5" fill="#d2daff" opacity="0.15" />
    <!-- Module C -->
    <rect x="328" y="20" width="124" height="68" rx="10" fill="#2c3040" />
    <rect x="342" y="34" width="44" height="6" rx="3" fill="#b1b2ff" opacity="0.65" />
    <rect x="342" y="46" width="76" height="5" rx="2.5" fill="#d2daff" opacity="0.35" />
    <rect x="342" y="57" width="60" height="5" rx="2.5" fill="#d2daff" opacity="0.25" />
    <rect x="342" y="68" width="40" height="5" rx="2.5" fill="#d2daff" opacity="0.18" />
  </g>
  <!-- Connectors → API -->
  <line x1="90" y1="88" x2="90" y2="112" stroke="#b1b2ff" stroke-width="1.5" stroke-dasharray="4 3" opacity="0.45" />
  <line x1="240" y1="96" x2="240" y2="112" stroke="#b1b2ff" stroke-width="2" opacity="0.65" />
  <path d="M237 107 L240 114 L243 107" stroke="#b1b2ff" stroke-width="1.5" stroke-linecap="round" stroke-linejoin="round" fill="none" opacity="0.7" />
  <line x1="390" y1="88" x2="390" y2="112" stroke="#b1b2ff" stroke-width="1.5" stroke-dasharray="4 3" opacity="0.45" />
  <!-- API layer -->
  <rect x="28" y="112" width="424" height="48" rx="12" fill="#d2daff" opacity="0.55" />
  <rect x="44" y="126" width="30" height="7" rx="3.5" fill="#2c3040" opacity="0.28" />
  <line x1="86" y1="116" x2="86" y2="156" stroke="#b1b2ff" stroke-width="0.8" opacity="0.3" />
  <rect x="98" y="125" width="52" height="9" rx="4.5" fill="#2c3040" opacity="0.1" />
  <rect x="158" y="125" width="52" height="9" rx="4.5" fill="#b1b2ff" opacity="0.35" />
  <rect x="218" y="125" width="52" height="9" rx="4.5" fill="#2c3040" opacity="0.1" />
  <rect x="278" y="125" width="52" height="9" rx="4.5" fill="#2c3040" opacity="0.1" />
  <rect x="338" y="125" width="52" height="9" rx="4.5" fill="#aac4ff" opacity="0.25" />
  <rect x="98" y="140" width="268" height="4" rx="2" fill="#d2daff" opacity="0.5" />
  <rect x="98" y="140" width="168" height="4" rx="2" fill="#b1b2ff" opacity="0.3" />
  <!-- Connectors → Backend -->
  <line x1="124" y1="160" x2="124" y2="182" stroke="#b1b2ff" stroke-width="1.5" stroke-dasharray="4 3" opacity="0.45" />
  <path d="M121 176 L124 183 L127 176" stroke="#b1b2ff" stroke-width="1.5" stroke-linecap="round" stroke-linejoin="round" fill="none" opacity="0.6" />
  <line x1="356" y1="160" x2="356" y2="182" stroke="#b1b2ff" stroke-width="1.5" stroke-dasharray="4 3" opacity="0.45" />
  <path d="M353 176 L356 183 L359 176" stroke="#b1b2ff" stroke-width="1.5" stroke-linecap="round" stroke-linejoin="round" fill="none" opacity="0.6" />
  <!-- Backend + DB — floats down -->
  <g class="svg-float-b">
    <!-- Backend server -->
    <rect x="28" y="182" width="192" height="96" rx="12" fill="#2c3040" />
    <rect x="44" y="196" width="88" height="7" rx="3.5" fill="#b1b2ff" opacity="0.55" />
    <rect x="44" y="210" width="140" height="5" rx="2.5" fill="#d2daff" opacity="0.28" />
    <rect x="44" y="220" width="120" height="5" rx="2.5" fill="#d2daff" opacity="0.22" />
    <rect x="44" y="230" width="104" height="5" rx="2.5" fill="#d2daff" opacity="0.18" />
    <rect x="44" y="240" width="140" height="5" rx="2.5" fill="#d2daff" opacity="0.14" />
    <rect x="44" y="250" width="88" height="5" rx="2.5" fill="#d2daff" opacity="0.1" />
    <rect x="44" y="262" width="56" height="9" rx="4.5" fill="#b1b2ff" opacity="0.25" />
    <circle cx="196" cy="200" r="5" fill="#b1b2ff" opacity="0.5" />
    <circle cx="208" cy="200" r="5" fill="#aac4ff" opacity="0.3" />
    <!-- DB -->
    <rect x="260" y="182" width="192" height="96" rx="12" fill="#d2daff" opacity="0.5" />
    <ellipse cx="338" cy="204" rx="28" ry="8" fill="#b1b2ff" opacity="0.45" />
    <rect x="310" y="204" width="56" height="28" fill="#b1b2ff" opacity="0.18" />
    <ellipse cx="338" cy="232" rx="28" ry="8" fill="#b1b2ff" opacity="0.38" />
    <ellipse cx="338" cy="204" rx="28" ry="8" fill="#b1b2ff" opacity="0.45" />
    <rect x="378" y="200" width="52" height="5" rx="2.5" fill="#2c3040" opacity="0.18" />
    <rect x="378" y="211" width="40" height="5" rx="2.5" fill="#2c3040" opacity="0.13" />
    <rect x="378" y="222" width="48" height="5" rx="2.5" fill="#2c3040" opacity="0.1" />
    <rect x="276" y="252" width="160" height="14" rx="5" fill="#b1b2ff" opacity="0.15" />
    <rect x="284" y="256" width="76" height="6" rx="3" fill="#2c3040" opacity="0.14" />
  </g>
  <!-- Performance strip -->
  <rect x="28" y="292" width="424" height="34" rx="10" fill="#d2daff" opacity="0.3" />
  <rect x="44" y="302" width="320" height="6" rx="3" fill="#d2daff" opacity="0.5" />
  <rect x="44" y="302" width="220" height="6" rx="3" fill="#b1b2ff" opacity="0.6" />
  <rect x="44" y="314" width="320" height="6" rx="3" fill="#d2daff" opacity="0.5" />
  <rect x="44" y="314" width="268" height="6" rx="3" fill="#aac4ff" opacity="0.55" />
  <rect x="378" y="300" width="40" height="6" rx="3" fill="#2c3040" opacity="0.16" />
  <rect x="378" y="312" width="40" height="6" rx="3" fill="#2c3040" opacity="0.13" />
  <!-- Corner accents -->
  <circle cx="460" cy="328" r="5" fill="#b1b2ff" opacity="0.2" />
  <circle cx="20" cy="20" r="5" fill="#b1b2ff" opacity="0.2" />
</svg>
