<svg xmlns="http://www.w3.org/2000/svg" version="1.1" xmlns:xlink="http://www.w3.org/1999/xlink" xmlns:svgjs="http://svgjs.dev/svgjs" width="1440" height="560" preserveAspectRatio="none" viewBox="0 0 1440 560"><g mask="url(&quot;#SvgjsMask4937&quot;)" fill="none"><path d="M1340.73 246.86a5.6 5.6 0 1 0-10.64 3.5 5.6 5.6 0 1 0 10.64-3.5zM1325.53 251.86a5.6 5.6 0 1 0-10.64 3.5 5.6 5.6 0 1 0 10.64-3.5zM1310.33 256.86a5.6 5.6 0 1 0-10.64 3.5 5.6 5.6 0 1 0 10.64-3.5zM1295.13 261.86a5.6 5.6 0 1 0-10.64 3.5 5.6 5.6 0 1 0 10.64-3.5zM1366.12 221.66a5.6 5.6 0 1 0-10.64 3.5 5.6 5.6 0 1 0 10.64-3.5zM1350.92 226.66a5.6 5.6 0 1 0-10.63 3.5 5.6 5.6 0 1 0 10.63-3.5zM1335.73 231.66a5.6 5.6 0 1 0-10.64 3.5 5.6 5.6 0 1 0 10.64-3.5zM1320.53 236.66a5.6 5.6 0 1 0-10.64 3.5 5.6 5.6 0 1 0 10.64-3.5zM1391.52 196.46a5.6 5.6 0 1 0-10.64 3.5 5.6 5.6 0 1 0 10.64-3.5zM1376.32 201.46a5.6 5.6 0 1 0-10.64 3.5 5.6 5.6 0 1 0 10.64-3.5zM1361.12 206.46a5.6 5.6 0 1 0-10.64 3.5 5.6 5.6 0 1 0 10.64-3.5zM1345.92 211.46a5.6 5.6 0 1 0-10.63 3.5 5.6 5.6 0 1 0 10.63-3.5z" fill="rgba(15, 172, 186, 1)"></path><rect width="276" height="276" clip-path="url(&quot;#SvgjsClipPath4938&quot;)" x="1288.84" y="207.1" fill="url(&quot;#SvgjsPattern4939&quot;)" transform="rotate(6.78, 1426.84, 345.1)"></rect><path d="M448.57 549.29L461.37 549.88 463.6 562.5 476.39 563.09 478.62 575.7 491.41 576.29 493.64 588.9M443.29 555.3L456.09 555.89 458.32 568.5 471.11 569.1 473.34 581.71 486.13 582.3 488.36 594.91" stroke="rgba(15, 82, 186, 1)" stroke-width="2.02" stroke-dasharray="2, 2"></path><rect width="158.08" height="158.08" clip-path="url(&quot;#SvgjsClipPath4940&quot;)" x="556.57" y="395.48" fill="url(&quot;#SvgjsPattern4941&quot;)" transform="rotate(4.32, 635.61, 474.52)"></rect><circle r="89.10434817721975" cx="210.56" cy="494.71" fill="rgba(15, 82, 186, 1)"></circle><path d="M36.32 208.63L28.36 198.6 36.4 188.63 28.44 178.6 36.48 168.63 28.52 158.6 36.55 148.63M44.32 208.66L36.36 198.63 44.4 188.66 36.44 178.63 44.48 168.66 36.52 158.63 44.55 148.66M52.32 208.69L44.36 198.66 52.4 188.69 44.44 178.66 52.48 168.69 44.52 158.66 52.55 148.69" stroke="rgba(15, 172, 186, 1)" stroke-width="2.66"></path><rect width="115.4" height="115.4" clip-path="url(&quot;#SvgjsClipPath4942&quot;)" x="1216.1" y="351.32" fill="url(&quot;#SvgjsPattern4943&quot;)" transform="rotate(152.44, 1273.8, 409.02)"></rect><path d="M1262.96 15.96L1262.6 28.76 1250.04 31.22 1249.68 44.02 1237.11 46.48 1236.75 59.28 1224.18 61.74M1256.86 10.79L1256.5 23.59 1243.93 26.05 1243.57 38.85 1231 41.31 1230.64 54.11 1218.08 56.57" stroke="rgba(140, 147, 226, 1)" stroke-width="1.59" stroke-dasharray="3, 3"></path><rect width="372" height="372" clip-path="url(&quot;#SvgjsClipPath4944&quot;)" x="67.93" y="334.33" fill="url(&quot;#SvgjsPattern4945&quot;)" transform="rotate(243.76, 253.93, 520.33)"></rect><path d="M335.22 63.09L338.48 50.71 351.28 51.17 354.55 38.79 367.34 39.26 370.61 26.87 383.41 27.34" stroke="rgba(15, 82, 186, 1)" stroke-width="1.83" stroke-dasharray="3, 3"></path><rect width="264" height="264" clip-path="url(&quot;#SvgjsClipPath4946&quot;)" x="206.93" y="-124.98" fill="url(&quot;#SvgjsPattern4947&quot;)" transform="rotate(287.02, 338.93, 7.02)"></rect><rect width="88" height="88" clip-path="url(&quot;#SvgjsClipPath4948&quot;)" x="1208.25" y="269.91" fill="url(&quot;#SvgjsPattern4949&quot;)" transform="rotate(242.91, 1252.25, 313.91)"></rect></g><defs><mask id="SvgjsMask4937"><rect width="1440" height="560" fill="#ffffff"></rect></mask><pattern x="0" y="0" width="276" height="6" patternUnits="userSpaceOnUse" id="SvgjsPattern4939"><rect width="276" height="3" x="0" y="0" fill="rgba(15, 82, 186, 1)"></rect><rect width="276" height="3" x="0" y="3" fill="rgba(0, 0, 0, 0)"></rect></pattern><clipPath id="SvgjsClipPath4938"><circle r="69" cx="1426.84" cy="345.1"></circle></clipPath><pattern x="0" y="0" width="6.08" height="6.08" patternUnits="userSpaceOnUse" id="SvgjsPattern4941"><path d="M0 6.08L3.04 0L6.08 6.08" stroke="rgba(15, 82, 186, 1)" fill="none"></path></pattern><clipPath id="SvgjsClipPath4940"><circle r="39.52" cx="635.61" cy="474.52"></circle></clipPath><pattern x="0" y="0" width="11.54" height="11.54" patternUnits="userSpaceOnUse" id="SvgjsPattern4943"><path d="M5.77 1L5.77 10.54M1 5.77L10.54 5.77" stroke="rgba(15, 172, 186, 1)" fill="none" stroke-width="1"></path></pattern><clipPath id="SvgjsClipPath4942"><circle r="28.85" cx="1273.8" cy="409.02"></circle></clipPath><pattern x="0" y="0" width="6" height="6" patternUnits="userSpaceOnUse" id="SvgjsPattern4945"><path d="M0 6L3 0L6 6" stroke="rgba(15, 82, 186, 1)" fill="none"></path></pattern><clipPath id="SvgjsClipPath4944"><circle r="93" cx="253.93" cy="520.33"></circle></clipPath><pattern x="0" y="0" width="264" height="6" patternUnits="userSpaceOnUse" id="SvgjsPattern4947"><rect width="264" height="3" x="0" y="0" fill="rgba(15, 172, 186, 1)"></rect><rect width="264" height="3" x="0" y="3" fill="rgba(0, 0, 0, 0)"></rect></pattern><clipPath id="SvgjsClipPath4946"><circle r="66" cx="338.93" cy="7.02"></circle></clipPath><pattern x="0" y="0" width="88" height="8.8" patternUnits="userSpaceOnUse" id="SvgjsPattern4949"><rect width="88" height="4.4" x="0" y="0" fill="rgba(15, 82, 186, 1)"></rect><rect width="88" height="4.4" x="0" y="4.4" fill="rgba(0, 0, 0, 0)"></rect></pattern><clipPath id="SvgjsClipPath4948"><circle r="22" cx="1252.25" cy="313.91"></circle></clipPath></defs></svg>