<svg width="250" height="160" viewBox="0 0 250 160" fill="none" xmlns="http://www.w3.org/2000/svg">
<g clip-path="url(#clip0_104_3529)">
<path d="M1.41415 2.21133e-05L0.707046 -0.707085L-6.10352e-05 2.21133e-05L0.707046 0.707129L1.41415 2.21133e-05Z" fill="#F47C7C"/>
<path d="M10.3031 2.21133e-05L9.59597 -0.707085L8.88886 2.21133e-05L9.59597 0.707129L10.3031 2.21133e-05Z" fill="#F47C7C"/>
<path d="M19.1919 2.21133e-05L18.4848 -0.707085L17.7777 2.21133e-05L18.4848 0.707129L19.1919 2.21133e-05Z" fill="#F47C7C"/>
<path d="M28.0808 2.21133e-05L27.3737 -0.707085L26.6666 2.21133e-05L27.3737 0.707129L28.0808 2.21133e-05Z" fill="#F47C7C"/>
<path d="M36.9698 2.21133e-05L36.2626 -0.707085L35.5555 2.21133e-05L36.2626 0.707129L36.9698 2.21133e-05Z" fill="#F47C7C"/>
<path d="M45.8586 2.21133e-05L45.1515 -0.707085L44.4444 2.21133e-05L45.1515 0.707129L45.8586 2.21133e-05Z" fill="#F47C7C"/>
<path d="M54.7475 2.21133e-05L54.0404 -0.707085L53.3333 2.21133e-05L54.0404 0.707129L54.7475 2.21133e-05Z" fill="#F47C7C"/>
<path d="M63.6363 2.21133e-05L62.9292 -0.707085L62.2221 2.21133e-05L62.9292 0.707129L63.6363 2.21133e-05Z" fill="#F47C7C"/>
<path d="M72.5252 2.21133e-05L71.8181 -0.707085L71.111 2.21133e-05L71.8181 0.707129L72.5252 2.21133e-05Z" fill="#F47C7C"/>
<path d="M81.4142 2.21133e-05L80.7071 -0.707085L80 2.21133e-05L80.7071 0.707129L81.4142 2.21133e-05Z" fill="#F47C7C"/>
<path d="M90.303 2.21133e-05L89.5959 -0.707085L88.8888 2.21133e-05L89.5959 0.707129L90.303 2.21133e-05Z" fill="#F47C7C"/>
<path d="M99.1919 2.21133e-05L98.4848 -0.707085L97.7777 2.21133e-05L98.4848 0.707129L99.1919 2.21133e-05Z" fill="#F47C7C"/>
<path d="M108.081 2.21133e-05L107.374 -0.707085L106.667 2.21133e-05L107.374 0.707129L108.081 2.21133e-05Z" fill="#F47C7C"/>
<path d="M116.97 2.21133e-05L116.263 -0.707085L115.555 2.21133e-05L116.263 0.707129L116.97 2.21133e-05Z" fill="#F47C7C"/>
<path d="M125.859 2.21133e-05L125.152 -0.707085L124.444 2.21133e-05L125.152 0.707129L125.859 2.21133e-05Z" fill="#F47C7C"/>
<path d="M134.747 2.21133e-05L134.04 -0.707085L133.333 2.21133e-05L134.04 0.707129L134.747 2.21133e-05Z" fill="#F47C7C"/>
<path d="M143.636 2.21133e-05L142.929 -0.707085L142.222 2.21133e-05L142.929 0.707129L143.636 2.21133e-05Z" fill="#F47C7C"/>
<path d="M152.525 2.21133e-05L151.818 -0.707085L151.111 2.21133e-05L151.818 0.707129L152.525 2.21133e-05Z" fill="#F47C7C"/>
<path d="M161.414 2.21133e-05L160.707 -0.707085L160 2.21133e-05L160.707 0.707129L161.414 2.21133e-05Z" fill="#F47C7C"/>
<path d="M1.41415 8.88895L0.707046 8.18184L-6.10352e-05 8.88895L0.707046 9.59605L1.41415 8.88895Z" fill="#F47C7C"/>
<path d="M10.3031 8.88895L9.59597 8.18184L8.88886 8.88895L9.59597 9.59605L10.3031 8.88895Z" fill="#F47C7C"/>
<path d="M19.1919 8.88895L18.4848 8.18184L17.7777 8.88895L18.4848 9.59605L19.1919 8.88895Z" fill="#F47C7C"/>
<path d="M28.0808 8.88895L27.3737 8.18184L26.6666 8.88895L27.3737 9.59605L28.0808 8.88895Z" fill="#F47C7C"/>
<path d="M36.9698 8.88895L36.2626 8.18184L35.5555 8.88895L36.2626 9.59605L36.9698 8.88895Z" fill="#F47C7C"/>
<path d="M45.8586 8.88895L45.1515 8.18184L44.4444 8.88895L45.1515 9.59605L45.8586 8.88895Z" fill="#F47C7C"/>
<path d="M54.7475 8.88895L54.0404 8.18184L53.3333 8.88895L54.0404 9.59605L54.7475 8.88895Z" fill="#F47C7C"/>
<path d="M63.6363 8.88895L62.9292 8.18184L62.2221 8.88895L62.9292 9.59605L63.6363 8.88895Z" fill="#F47C7C"/>
<path d="M72.5252 8.88895L71.8181 8.18184L71.111 8.88895L71.8181 9.59605L72.5252 8.88895Z" fill="#F47C7C"/>
<path d="M81.4142 8.88895L80.7071 8.18184L80 8.88895L80.7071 9.59605L81.4142 8.88895Z" fill="#F47C7C"/>
<path d="M90.303 8.88895L89.5959 8.18184L88.8888 8.88895L89.5959 9.59605L90.303 8.88895Z" fill="#F47C7C"/>
<path d="M99.1919 8.88895L98.4848 8.18184L97.7777 8.88895L98.4848 9.59605L99.1919 8.88895Z" fill="#F47C7C"/>
<path d="M108.081 8.88895L107.374 8.18184L106.667 8.88895L107.374 9.59605L108.081 8.88895Z" fill="#F47C7C"/>
<path d="M116.97 8.88895L116.263 8.18184L115.555 8.88895L116.263 9.59605L116.97 8.88895Z" fill="#F47C7C"/>
<path d="M125.859 8.88895L125.152 8.18184L124.444 8.88895L125.152 9.59605L125.859 8.88895Z" fill="#F47C7C"/>
<path d="M134.747 8.88895L134.04 8.18184L133.333 8.88895L134.04 9.59605L134.747 8.88895Z" fill="#F47C7C"/>
<path d="M143.636 8.88895L142.929 8.18184L142.222 8.88895L142.929 9.59605L143.636 8.88895Z" fill="#F47C7C"/>
<path d="M152.525 8.88895L151.818 8.18184L151.111 8.88895L151.818 9.59605L152.525 8.88895Z" fill="#F47C7C"/>
<path d="M161.414 8.88895L160.707 8.18184L160 8.88895L160.707 9.59605L161.414 8.88895Z" fill="#F47C7C"/>
<path d="M1.41415 17.7779L0.707046 17.0708L-6.10352e-05 17.7779L0.707046 18.485L1.41415 17.7779Z" fill="#F47C7C"/>
<path d="M10.3031 17.7779L9.59597 17.0708L8.88886 17.7779L9.59597 18.485L10.3031 17.7779Z" fill="#F47C7C"/>
<path d="M19.1919 17.7779L18.4848 17.0708L17.7777 17.7779L18.4848 18.485L19.1919 17.7779Z" fill="#F47C7C"/>
<path d="M28.0808 17.7779L27.3737 17.0708L26.6666 17.7779L27.3737 18.485L28.0808 17.7779Z" fill="#F47C7C"/>
<path d="M36.9698 17.7779L36.2626 17.0708L35.5555 17.7779L36.2626 18.485L36.9698 17.7779Z" fill="#F47C7C"/>
<path d="M45.8586 17.7779L45.1515 17.0708L44.4444 17.7779L45.1515 18.485L45.8586 17.7779Z" fill="#F47C7C"/>
<path d="M54.7475 17.7779L54.0404 17.0708L53.3333 17.7779L54.0404 18.485L54.7475 17.7779Z" fill="#F47C7C"/>
<path d="M63.6363 17.7779L62.9292 17.0708L62.2221 17.7779L62.9292 18.485L63.6363 17.7779Z" fill="#F47C7C"/>
<path d="M72.5252 17.7779L71.8181 17.0708L71.111 17.7779L71.8181 18.485L72.5252 17.7779Z" fill="#F47C7C"/>
<path d="M81.4142 17.7779L80.7071 17.0708L80 17.7779L80.7071 18.485L81.4142 17.7779Z" fill="#F47C7C"/>
<path d="M90.303 17.7779L89.5959 17.0708L88.8888 17.7779L89.5959 18.485L90.303 17.7779Z" fill="#F47C7C"/>
<path d="M99.1919 17.7779L98.4848 17.0708L97.7777 17.7779L98.4848 18.485L99.1919 17.7779Z" fill="#F47C7C"/>
<path d="M108.081 17.7779L107.374 17.0708L106.667 17.7779L107.374 18.485L108.081 17.7779Z" fill="#F47C7C"/>
<path d="M116.97 17.7779L116.263 17.0708L115.555 17.7779L116.263 18.485L116.97 17.7779Z" fill="#F47C7C"/>
<path d="M125.859 17.7779L125.152 17.0708L124.444 17.7779L125.152 18.485L125.859 17.7779Z" fill="#F47C7C"/>
<path d="M134.747 17.7779L134.04 17.0708L133.333 17.7779L134.04 18.485L134.747 17.7779Z" fill="#F47C7C"/>
<path d="M143.636 17.7779L142.929 17.0708L142.222 17.7779L142.929 18.485L143.636 17.7779Z" fill="#F47C7C"/>
<path d="M152.525 17.7779L151.818 17.0708L151.111 17.7779L151.818 18.485L152.525 17.7779Z" fill="#F47C7C"/>
<path d="M161.414 17.7779L160.707 17.0708L160 17.7779L160.707 18.485L161.414 17.7779Z" fill="#F47C7C"/>
<path d="M1.41415 26.6668L0.707046 25.9597L-6.10352e-05 26.6668L0.707046 27.3739L1.41415 26.6668Z" fill="#F47C7C"/>
<path d="M10.3031 26.6668L9.59597 25.9597L8.88886 26.6668L9.59597 27.3739L10.3031 26.6668Z" fill="#F47C7C"/>
<path d="M19.1919 26.6668L18.4848 25.9597L17.7777 26.6668L18.4848 27.3739L19.1919 26.6668Z" fill="#F47C7C"/>
<path d="M28.0808 26.6668L27.3737 25.9597L26.6666 26.6668L27.3737 27.3739L28.0808 26.6668Z" fill="#F47C7C"/>
<path d="M36.9698 26.6668L36.2626 25.9597L35.5555 26.6668L36.2626 27.3739L36.9698 26.6668Z" fill="#F47C7C"/>
<path d="M45.8586 26.6668L45.1515 25.9597L44.4444 26.6668L45.1515 27.3739L45.8586 26.6668Z" fill="#F47C7C"/>
<path d="M54.7475 26.6668L54.0404 25.9597L53.3333 26.6668L54.0404 27.3739L54.7475 26.6668Z" fill="#F47C7C"/>
<path d="M63.6363 26.6668L62.9292 25.9597L62.2221 26.6668L62.9292 27.3739L63.6363 26.6668Z" fill="#F47C7C"/>
<path d="M72.5252 26.6668L71.8181 25.9597L71.111 26.6668L71.8181 27.3739L72.5252 26.6668Z" fill="#F47C7C"/>
<path d="M81.4142 26.6668L80.7071 25.9597L80 26.6668L80.7071 27.3739L81.4142 26.6668Z" fill="#F47C7C"/>
<path d="M90.303 26.6668L89.5959 25.9597L88.8888 26.6668L89.5959 27.3739L90.303 26.6668Z" fill="#F47C7C"/>
<path d="M99.1919 26.6668L98.4848 25.9597L97.7777 26.6668L98.4848 27.3739L99.1919 26.6668Z" fill="#F47C7C"/>
<path d="M108.081 26.6668L107.374 25.9597L106.667 26.6668L107.374 27.3739L108.081 26.6668Z" fill="#F47C7C"/>
<path d="M116.97 26.6668L116.263 25.9597L115.555 26.6668L116.263 27.3739L116.97 26.6668Z" fill="#F47C7C"/>
<path d="M125.859 26.6668L125.152 25.9597L124.444 26.6668L125.152 27.3739L125.859 26.6668Z" fill="#F47C7C"/>
<path d="M134.747 26.6668L134.04 25.9597L133.333 26.6668L134.04 27.3739L134.747 26.6668Z" fill="#F47C7C"/>
<path d="M143.636 26.6668L142.929 25.9597L142.222 26.6668L142.929 27.3739L143.636 26.6668Z" fill="#F47C7C"/>
<path d="M152.525 26.6668L151.818 25.9597L151.111 26.6668L151.818 27.3739L152.525 26.6668Z" fill="#F47C7C"/>
<path d="M161.414 26.6668L160.707 25.9597L160 26.6668L160.707 27.3739L161.414 26.6668Z" fill="#F47C7C"/>
<path d="M1.41415 35.5556L0.707046 34.8485L-6.10352e-05 35.5556L0.707046 36.2627L1.41415 35.5556Z" fill="#F47C7C"/>
<path d="M10.3031 35.5556L9.59597 34.8485L8.88886 35.5556L9.59597 36.2627L10.3031 35.5556Z" fill="#F47C7C"/>
<path d="M19.1919 35.5556L18.4848 34.8485L17.7777 35.5556L18.4848 36.2627L19.1919 35.5556Z" fill="#F47C7C"/>
<path d="M28.0808 35.5556L27.3737 34.8485L26.6666 35.5556L27.3737 36.2627L28.0808 35.5556Z" fill="#F47C7C"/>
<path d="M36.9698 35.5556L36.2626 34.8485L35.5555 35.5556L36.2626 36.2627L36.9698 35.5556Z" fill="#F47C7C"/>
<path d="M45.8586 35.5556L45.1515 34.8485L44.4444 35.5556L45.1515 36.2627L45.8586 35.5556Z" fill="#F47C7C"/>
<path d="M54.7475 35.5556L54.0404 34.8485L53.3333 35.5556L54.0404 36.2627L54.7475 35.5556Z" fill="#F47C7C"/>
<path d="M63.6363 35.5556L62.9292 34.8485L62.2221 35.5556L62.9292 36.2627L63.6363 35.5556Z" fill="#F47C7C"/>
<path d="M72.5252 35.5556L71.8181 34.8485L71.111 35.5556L71.8181 36.2627L72.5252 35.5556Z" fill="#F47C7C"/>
<path d="M81.4142 35.5556L80.7071 34.8485L80 35.5556L80.7071 36.2627L81.4142 35.5556Z" fill="#F47C7C"/>
<path d="M90.303 35.5556L89.5959 34.8485L88.8888 35.5556L89.5959 36.2627L90.303 35.5556Z" fill="#F47C7C"/>
<path d="M99.1919 35.5556L98.4848 34.8485L97.7777 35.5556L98.4848 36.2627L99.1919 35.5556Z" fill="#F47C7C"/>
<path d="M108.081 35.5556L107.374 34.8485L106.667 35.5556L107.374 36.2627L108.081 35.5556Z" fill="#F47C7C"/>
<path d="M116.97 35.5556L116.263 34.8485L115.555 35.5556L116.263 36.2627L116.97 35.5556Z" fill="#F47C7C"/>
<path d="M125.859 35.5556L125.152 34.8485L124.444 35.5556L125.152 36.2627L125.859 35.5556Z" fill="#F47C7C"/>
<path d="M134.747 35.5556L134.04 34.8485L133.333 35.5556L134.04 36.2627L134.747 35.5556Z" fill="#F47C7C"/>
<path d="M143.636 35.5556L142.929 34.8485L142.222 35.5556L142.929 36.2627L143.636 35.5556Z" fill="#F47C7C"/>
<path d="M152.525 35.5556L151.818 34.8485L151.111 35.5556L151.818 36.2627L152.525 35.5556Z" fill="#F47C7C"/>
<path d="M161.414 35.5556L160.707 34.8485L160 35.5556L160.707 36.2627L161.414 35.5556Z" fill="#F47C7C"/>
<path d="M1.41415 44.4446L0.707046 43.7374L-6.10352e-05 44.4446L0.707046 45.1517L1.41415 44.4446Z" fill="#F47C7C"/>
<path d="M10.3031 44.4446L9.59597 43.7374L8.88886 44.4446L9.59597 45.1517L10.3031 44.4446Z" fill="#F47C7C"/>
<path d="M19.1919 44.4446L18.4848 43.7374L17.7777 44.4446L18.4848 45.1517L19.1919 44.4446Z" fill="#F47C7C"/>
<path d="M28.0808 44.4446L27.3737 43.7374L26.6666 44.4446L27.3737 45.1517L28.0808 44.4446Z" fill="#F47C7C"/>
<path d="M36.9698 44.4446L36.2626 43.7374L35.5555 44.4446L36.2626 45.1517L36.9698 44.4446Z" fill="#F47C7C"/>
<path d="M45.8586 44.4446L45.1515 43.7374L44.4444 44.4446L45.1515 45.1517L45.8586 44.4446Z" fill="#F47C7C"/>
<path d="M54.7475 44.4446L54.0404 43.7374L53.3333 44.4446L54.0404 45.1517L54.7475 44.4446Z" fill="#F47C7C"/>
<path d="M63.6363 44.4446L62.9292 43.7374L62.2221 44.4446L62.9292 45.1517L63.6363 44.4446Z" fill="#F47C7C"/>
<path d="M72.5252 44.4446L71.8181 43.7374L71.111 44.4446L71.8181 45.1517L72.5252 44.4446Z" fill="#F47C7C"/>
<path d="M81.4142 44.4446L80.7071 43.7374L80 44.4446L80.7071 45.1517L81.4142 44.4446Z" fill="#F47C7C"/>
<path d="M90.303 44.4446L89.5959 43.7374L88.8888 44.4446L89.5959 45.1517L90.303 44.4446Z" fill="#F47C7C"/>
<path d="M99.1919 44.4446L98.4848 43.7374L97.7777 44.4446L98.4848 45.1517L99.1919 44.4446Z" fill="#F47C7C"/>
<path d="M108.081 44.4446L107.374 43.7374L106.667 44.4446L107.374 45.1517L108.081 44.4446Z" fill="#F47C7C"/>
<path d="M116.97 44.4446L116.263 43.7374L115.555 44.4446L116.263 45.1517L116.97 44.4446Z" fill="#F47C7C"/>
<path d="M125.859 44.4446L125.152 43.7374L124.444 44.4446L125.152 45.1517L125.859 44.4446Z" fill="#F47C7C"/>
<path d="M134.747 44.4446L134.04 43.7374L133.333 44.4446L134.04 45.1517L134.747 44.4446Z" fill="#F47C7C"/>
<path d="M143.636 44.4446L142.929 43.7374L142.222 44.4446L142.929 45.1517L143.636 44.4446Z" fill="#F47C7C"/>
<path d="M152.525 44.4446L151.818 43.7374L151.111 44.4446L151.818 45.1517L152.525 44.4446Z" fill="#F47C7C"/>
<path d="M161.414 44.4446L160.707 43.7374L160 44.4446L160.707 45.1517L161.414 44.4446Z" fill="#F47C7C"/>
<path d="M1.41415 53.3335L0.707046 52.6264L-6.10352e-05 53.3335L0.707046 54.0406L1.41415 53.3335Z" fill="#F47C7C"/>
<path d="M10.3031 53.3335L9.59597 52.6264L8.88886 53.3335L9.59597 54.0406L10.3031 53.3335Z" fill="#F47C7C"/>
<path d="M19.1919 53.3335L18.4848 52.6264L17.7777 53.3335L18.4848 54.0406L19.1919 53.3335Z" fill="#F47C7C"/>
<path d="M28.0808 53.3335L27.3737 52.6264L26.6666 53.3335L27.3737 54.0406L28.0808 53.3335Z" fill="#F47C7C"/>
<path d="M36.9698 53.3335L36.2626 52.6264L35.5555 53.3335L36.2626 54.0406L36.9698 53.3335Z" fill="#F47C7C"/>
<path d="M45.8586 53.3335L45.1515 52.6264L44.4444 53.3335L45.1515 54.0406L45.8586 53.3335Z" fill="#F47C7C"/>
<path d="M54.7475 53.3335L54.0404 52.6264L53.3333 53.3335L54.0404 54.0406L54.7475 53.3335Z" fill="#F47C7C"/>
<path d="M63.6363 53.3335L62.9292 52.6264L62.2221 53.3335L62.9292 54.0406L63.6363 53.3335Z" fill="#F47C7C"/>
<path d="M72.5252 53.3335L71.8181 52.6264L71.111 53.3335L71.8181 54.0406L72.5252 53.3335Z" fill="#F47C7C"/>
<path d="M81.4142 53.3335L80.7071 52.6264L80 53.3335L80.7071 54.0406L81.4142 53.3335Z" fill="#F47C7C"/>
<path d="M90.303 53.3335L89.5959 52.6264L88.8888 53.3335L89.5959 54.0406L90.303 53.3335Z" fill="#F47C7C"/>
<path d="M99.1919 53.3335L98.4848 52.6264L97.7777 53.3335L98.4848 54.0406L99.1919 53.3335Z" fill="#F47C7C"/>
<path d="M108.081 53.3335L107.374 52.6264L106.667 53.3335L107.374 54.0406L108.081 53.3335Z" fill="#F47C7C"/>
<path d="M116.97 53.3335L116.263 52.6264L115.555 53.3335L116.263 54.0406L116.97 53.3335Z" fill="#F47C7C"/>
<path d="M125.859 53.3335L125.152 52.6264L124.444 53.3335L125.152 54.0406L125.859 53.3335Z" fill="#F47C7C"/>
<path d="M134.747 53.3335L134.04 52.6264L133.333 53.3335L134.04 54.0406L134.747 53.3335Z" fill="#F47C7C"/>
<path d="M143.636 53.3335L142.929 52.6264L142.222 53.3335L142.929 54.0406L143.636 53.3335Z" fill="#F47C7C"/>
<path d="M152.525 53.3335L151.818 52.6264L151.111 53.3335L151.818 54.0406L152.525 53.3335Z" fill="#F47C7C"/>
<path d="M161.414 53.3335L160.707 52.6264L160 53.3335L160.707 54.0406L161.414 53.3335Z" fill="#F47C7C"/>
<path d="M1.41415 62.2222L0.707046 61.5151L-6.10352e-05 62.2222L0.707046 62.9293L1.41415 62.2222Z" fill="#F47C7C"/>
<path d="M10.3031 62.2222L9.59597 61.5151L8.88886 62.2222L9.59597 62.9293L10.3031 62.2222Z" fill="#F47C7C"/>
<path d="M19.1919 62.2222L18.4848 61.5151L17.7777 62.2222L18.4848 62.9293L19.1919 62.2222Z" fill="#F47C7C"/>
<path d="M28.0808 62.2222L27.3737 61.5151L26.6666 62.2222L27.3737 62.9293L28.0808 62.2222Z" fill="#F47C7C"/>
<path d="M36.9698 62.2222L36.2626 61.5151L35.5555 62.2222L36.2626 62.9293L36.9698 62.2222Z" fill="#F47C7C"/>
<path d="M45.8586 62.2222L45.1515 61.5151L44.4444 62.2222L45.1515 62.9293L45.8586 62.2222Z" fill="#F47C7C"/>
<path d="M54.7475 62.2222L54.0404 61.5151L53.3333 62.2222L54.0404 62.9293L54.7475 62.2222Z" fill="#F47C7C"/>
<path d="M63.6363 62.2222L62.9292 61.5151L62.2221 62.2222L62.9292 62.9293L63.6363 62.2222Z" fill="#F47C7C"/>
<path d="M72.5252 62.2222L71.8181 61.5151L71.111 62.2222L71.8181 62.9293L72.5252 62.2222Z" fill="#F47C7C"/>
<path d="M81.4142 62.2222L80.7071 61.5151L80 62.2222L80.7071 62.9293L81.4142 62.2222Z" fill="#F47C7C"/>
<path d="M90.303 62.2222L89.5959 61.5151L88.8888 62.2222L89.5959 62.9293L90.303 62.2222Z" fill="#F47C7C"/>
<path d="M99.1919 62.2222L98.4848 61.5151L97.7777 62.2222L98.4848 62.9293L99.1919 62.2222Z" fill="#F47C7C"/>
<path d="M108.081 62.2222L107.374 61.5151L106.667 62.2222L107.374 62.9293L108.081 62.2222Z" fill="#F47C7C"/>
<path d="M116.97 62.2222L116.263 61.5151L115.555 62.2222L116.263 62.9293L116.97 62.2222Z" fill="#F47C7C"/>
<path d="M125.859 62.2222L125.152 61.5151L124.444 62.2222L125.152 62.9293L125.859 62.2222Z" fill="#F47C7C"/>
<path d="M134.747 62.2222L134.04 61.5151L133.333 62.2222L134.04 62.9293L134.747 62.2222Z" fill="#F47C7C"/>
<path d="M143.636 62.2222L142.929 61.5151L142.222 62.2222L142.929 62.9293L143.636 62.2222Z" fill="#F47C7C"/>
<path d="M152.525 62.2222L151.818 61.5151L151.111 62.2222L151.818 62.9293L152.525 62.2222Z" fill="#F47C7C"/>
<path d="M161.414 62.2222L160.707 61.5151L160 62.2222L160.707 62.9293L161.414 62.2222Z" fill="#F47C7C"/>
<path d="M1.41415 71.1112L0.707046 70.4041L-6.10352e-05 71.1112L0.707046 71.8183L1.41415 71.1112Z" fill="#F47C7C"/>
<path d="M10.3031 71.1112L9.59597 70.4041L8.88886 71.1112L9.59597 71.8183L10.3031 71.1112Z" fill="#F47C7C"/>
<path d="M19.1919 71.1112L18.4848 70.4041L17.7777 71.1112L18.4848 71.8183L19.1919 71.1112Z" fill="#F47C7C"/>
<path d="M28.0808 71.1112L27.3737 70.4041L26.6666 71.1112L27.3737 71.8183L28.0808 71.1112Z" fill="#F47C7C"/>
<path d="M36.9698 71.1112L36.2626 70.4041L35.5555 71.1112L36.2626 71.8183L36.9698 71.1112Z" fill="#F47C7C"/>
<path d="M45.8586 71.1112L45.1515 70.4041L44.4444 71.1112L45.1515 71.8183L45.8586 71.1112Z" fill="#F47C7C"/>
<path d="M54.7475 71.1112L54.0404 70.4041L53.3333 71.1112L54.0404 71.8183L54.7475 71.1112Z" fill="#F47C7C"/>
<path d="M63.6363 71.1112L62.9292 70.4041L62.2221 71.1112L62.9292 71.8183L63.6363 71.1112Z" fill="#F47C7C"/>
<path d="M72.5252 71.1112L71.8181 70.4041L71.111 71.1112L71.8181 71.8183L72.5252 71.1112Z" fill="#F47C7C"/>
<path d="M81.4142 71.1112L80.7071 70.4041L80 71.1112L80.7071 71.8183L81.4142 71.1112Z" fill="#F47C7C"/>
<path d="M90.303 71.1112L89.5959 70.4041L88.8888 71.1112L89.5959 71.8183L90.303 71.1112Z" fill="#F47C7C"/>
<path d="M99.1919 71.1112L98.4848 70.4041L97.7777 71.1112L98.4848 71.8183L99.1919 71.1112Z" fill="#F47C7C"/>
<path d="M108.081 71.1112L107.374 70.4041L106.667 71.1112L107.374 71.8183L108.081 71.1112Z" fill="#F47C7C"/>
<path d="M116.97 71.1112L116.263 70.4041L115.555 71.1112L116.263 71.8183L116.97 71.1112Z" fill="#F47C7C"/>
<path d="M125.859 71.1112L125.152 70.4041L124.444 71.1112L125.152 71.8183L125.859 71.1112Z" fill="#F47C7C"/>
<path d="M134.747 71.1112L134.04 70.4041L133.333 71.1112L134.04 71.8183L134.747 71.1112Z" fill="#F47C7C"/>
<path d="M143.636 71.1112L142.929 70.4041L142.222 71.1112L142.929 71.8183L143.636 71.1112Z" fill="#F47C7C"/>
<path d="M152.525 71.1112L151.818 70.4041L151.111 71.1112L151.818 71.8183L152.525 71.1112Z" fill="#F47C7C"/>
<path d="M161.414 71.1112L160.707 70.4041L160 71.1112L160.707 71.8183L161.414 71.1112Z" fill="#F47C7C"/>
<path d="M1.41415 80.0002L0.707046 79.2931L-6.10352e-05 80.0002L0.707046 80.7073L1.41415 80.0002Z" fill="#F47C7C"/>
<path d="M10.3031 80.0002L9.59597 79.2931L8.88886 80.0002L9.59597 80.7073L10.3031 80.0002Z" fill="#F47C7C"/>
<path d="M19.1919 80.0002L18.4848 79.2931L17.7777 80.0002L18.4848 80.7073L19.1919 80.0002Z" fill="#F47C7C"/>
<path d="M28.0808 80.0002L27.3737 79.2931L26.6666 80.0002L27.3737 80.7073L28.0808 80.0002Z" fill="#F47C7C"/>
<path d="M36.9698 80.0002L36.2626 79.2931L35.5555 80.0002L36.2626 80.7073L36.9698 80.0002Z" fill="#F47C7C"/>
<path d="M45.8586 80.0002L45.1515 79.2931L44.4444 80.0002L45.1515 80.7073L45.8586 80.0002Z" fill="#F47C7C"/>
<path d="M54.7475 80.0002L54.0404 79.2931L53.3333 80.0002L54.0404 80.7073L54.7475 80.0002Z" fill="#F47C7C"/>
<path d="M63.6363 80.0002L62.9292 79.2931L62.2221 80.0002L62.9292 80.7073L63.6363 80.0002Z" fill="#F47C7C"/>
<path d="M72.5252 80.0002L71.8181 79.2931L71.111 80.0002L71.8181 80.7073L72.5252 80.0002Z" fill="#F47C7C"/>
<path d="M81.4142 80.0002L80.7071 79.2931L80 80.0002L80.7071 80.7073L81.4142 80.0002Z" fill="#F47C7C"/>
<path d="M90.303 80.0002L89.5959 79.2931L88.8888 80.0002L89.5959 80.7073L90.303 80.0002Z" fill="#F47C7C"/>
<path d="M99.1919 80.0002L98.4848 79.2931L97.7777 80.0002L98.4848 80.7073L99.1919 80.0002Z" fill="#F47C7C"/>
<path d="M108.081 80.0002L107.374 79.2931L106.667 80.0002L107.374 80.7073L108.081 80.0002Z" fill="#F47C7C"/>
<path d="M116.97 80.0002L116.263 79.2931L115.555 80.0002L116.263 80.7073L116.97 80.0002Z" fill="#F47C7C"/>
<path d="M125.859 80.0002L125.152 79.2931L124.444 80.0002L125.152 80.7073L125.859 80.0002Z" fill="#F47C7C"/>
<path d="M134.747 80.0002L134.04 79.2931L133.333 80.0002L134.04 80.7073L134.747 80.0002Z" fill="#F47C7C"/>
<path d="M143.636 80.0002L142.929 79.2931L142.222 80.0002L142.929 80.7073L143.636 80.0002Z" fill="#F47C7C"/>
<path d="M152.525 80.0002L151.818 79.2931L151.111 80.0002L151.818 80.7073L152.525 80.0002Z" fill="#F47C7C"/>
<path d="M161.414 80.0002L160.707 79.2931L160 80.0002L160.707 80.7073L161.414 80.0002Z" fill="#F47C7C"/>
<path d="M1.41415 88.889L0.707046 88.1819L-6.10352e-05 88.889L0.707046 89.5961L1.41415 88.889Z" fill="#F47C7C"/>
<path d="M10.3031 88.889L9.59597 88.1819L8.88886 88.889L9.59597 89.5961L10.3031 88.889Z" fill="#F47C7C"/>
<path d="M19.1919 88.889L18.4848 88.1819L17.7777 88.889L18.4848 89.5961L19.1919 88.889Z" fill="#F47C7C"/>
<path d="M28.0808 88.889L27.3737 88.1819L26.6666 88.889L27.3737 89.5961L28.0808 88.889Z" fill="#F47C7C"/>
<path d="M36.9698 88.889L36.2626 88.1819L35.5555 88.889L36.2626 89.5961L36.9698 88.889Z" fill="#F47C7C"/>
<path d="M45.8586 88.889L45.1515 88.1819L44.4444 88.889L45.1515 89.5961L45.8586 88.889Z" fill="#F47C7C"/>
<path d="M54.7475 88.889L54.0404 88.1819L53.3333 88.889L54.0404 89.5961L54.7475 88.889Z" fill="#F47C7C"/>
<path d="M63.6363 88.889L62.9292 88.1819L62.2221 88.889L62.9292 89.5961L63.6363 88.889Z" fill="#F47C7C"/>
<path d="M72.5252 88.889L71.8181 88.1819L71.111 88.889L71.8181 89.5961L72.5252 88.889Z" fill="#F47C7C"/>
<path d="M81.4142 88.889L80.7071 88.1819L80 88.889L80.7071 89.5961L81.4142 88.889Z" fill="#F47C7C"/>
<path d="M90.303 88.889L89.5959 88.1819L88.8888 88.889L89.5959 89.5961L90.303 88.889Z" fill="#F47C7C"/>
<path d="M99.1919 88.889L98.4848 88.1819L97.7777 88.889L98.4848 89.5961L99.1919 88.889Z" fill="#F47C7C"/>
<path d="M108.081 88.889L107.374 88.1819L106.667 88.889L107.374 89.5961L108.081 88.889Z" fill="#F47C7C"/>
<path d="M116.97 88.889L116.263 88.1819L115.555 88.889L116.263 89.5961L116.97 88.889Z" fill="#F47C7C"/>
<path d="M125.859 88.889L125.152 88.1819L124.444 88.889L125.152 89.5961L125.859 88.889Z" fill="#F47C7C"/>
<path d="M134.747 88.889L134.04 88.1819L133.333 88.889L134.04 89.5961L134.747 88.889Z" fill="#F47C7C"/>
<path d="M143.636 88.889L142.929 88.1819L142.222 88.889L142.929 89.5961L143.636 88.889Z" fill="#F47C7C"/>
<path d="M152.525 88.889L151.818 88.1819L151.111 88.889L151.818 89.5961L152.525 88.889Z" fill="#F47C7C"/>
<path d="M161.414 88.889L160.707 88.1819L160 88.889L160.707 89.5961L161.414 88.889Z" fill="#F47C7C"/>
<path d="M1.41415 97.7778L0.707046 97.0707L-6.10352e-05 97.7778L0.707046 98.4849L1.41415 97.7778Z" fill="#F47C7C"/>
<path d="M10.3031 97.7778L9.59597 97.0707L8.88886 97.7778L9.59597 98.4849L10.3031 97.7778Z" fill="#F47C7C"/>
<path d="M19.1919 97.7778L18.4848 97.0707L17.7777 97.7778L18.4848 98.4849L19.1919 97.7778Z" fill="#F47C7C"/>
<path d="M28.0808 97.7778L27.3737 97.0707L26.6666 97.7778L27.3737 98.4849L28.0808 97.7778Z" fill="#F47C7C"/>
<path d="M36.9698 97.7778L36.2626 97.0707L35.5555 97.7778L36.2626 98.4849L36.9698 97.7778Z" fill="#F47C7C"/>
<path d="M45.8586 97.7778L45.1515 97.0707L44.4444 97.7778L45.1515 98.4849L45.8586 97.7778Z" fill="#F47C7C"/>
<path d="M54.7475 97.7778L54.0404 97.0707L53.3333 97.7778L54.0404 98.4849L54.7475 97.7778Z" fill="#F47C7C"/>
<path d="M63.6363 97.7778L62.9292 97.0707L62.2221 97.7778L62.9292 98.4849L63.6363 97.7778Z" fill="#F47C7C"/>
<path d="M72.5252 97.7778L71.8181 97.0707L71.111 97.7778L71.8181 98.4849L72.5252 97.7778Z" fill="#F47C7C"/>
<path d="M81.4142 97.7778L80.7071 97.0707L80 97.7778L80.7071 98.4849L81.4142 97.7778Z" fill="#F47C7C"/>
<path d="M90.303 97.7778L89.5959 97.0707L88.8888 97.7778L89.5959 98.4849L90.303 97.7778Z" fill="#F47C7C"/>
<path d="M99.1919 97.7778L98.4848 97.0707L97.7777 97.7778L98.4848 98.4849L99.1919 97.7778Z" fill="#F47C7C"/>
<path d="M108.081 97.7778L107.374 97.0707L106.667 97.7778L107.374 98.4849L108.081 97.7778Z" fill="#F47C7C"/>
<path d="M116.97 97.7778L116.263 97.0707L115.555 97.7778L116.263 98.4849L116.97 97.7778Z" fill="#F47C7C"/>
<path d="M125.859 97.7778L125.152 97.0707L124.444 97.7778L125.152 98.4849L125.859 97.7778Z" fill="#F47C7C"/>
<path d="M134.747 97.7778L134.04 97.0707L133.333 97.7778L134.04 98.4849L134.747 97.7778Z" fill="#F47C7C"/>
<path d="M143.636 97.7778L142.929 97.0707L142.222 97.7778L142.929 98.4849L143.636 97.7778Z" fill="#F47C7C"/>
<path d="M152.525 97.7778L151.818 97.0707L151.111 97.7778L151.818 98.4849L152.525 97.7778Z" fill="#F47C7C"/>
<path d="M161.414 97.7778L160.707 97.0707L160 97.7778L160.707 98.4849L161.414 97.7778Z" fill="#F47C7C"/>
<path d="M1.41415 106.667L0.707046 105.96L-6.10352e-05 106.667L0.707046 107.374L1.41415 106.667Z" fill="#F47C7C"/>
<path d="M10.3031 106.667L9.59597 105.96L8.88886 106.667L9.59597 107.374L10.3031 106.667Z" fill="#F47C7C"/>
<path d="M19.1919 106.667L18.4848 105.96L17.7777 106.667L18.4848 107.374L19.1919 106.667Z" fill="#F47C7C"/>
<path d="M28.0808 106.667L27.3737 105.96L26.6666 106.667L27.3737 107.374L28.0808 106.667Z" fill="#F47C7C"/>
<path d="M36.9698 106.667L36.2626 105.96L35.5555 106.667L36.2626 107.374L36.9698 106.667Z" fill="#F47C7C"/>
<path d="M45.8586 106.667L45.1515 105.96L44.4444 106.667L45.1515 107.374L45.8586 106.667Z" fill="#F47C7C"/>
<path d="M54.7475 106.667L54.0404 105.96L53.3333 106.667L54.0404 107.374L54.7475 106.667Z" fill="#F47C7C"/>
<path d="M63.6363 106.667L62.9292 105.96L62.2221 106.667L62.9292 107.374L63.6363 106.667Z" fill="#F47C7C"/>
<path d="M72.5252 106.667L71.8181 105.96L71.111 106.667L71.8181 107.374L72.5252 106.667Z" fill="#F47C7C"/>
<path d="M81.4142 106.667L80.7071 105.96L80 106.667L80.7071 107.374L81.4142 106.667Z" fill="#F47C7C"/>
<path d="M90.303 106.667L89.5959 105.96L88.8888 106.667L89.5959 107.374L90.303 106.667Z" fill="#F47C7C"/>
<path d="M99.1919 106.667L98.4848 105.96L97.7777 106.667L98.4848 107.374L99.1919 106.667Z" fill="#F47C7C"/>
<path d="M108.081 106.667L107.374 105.96L106.667 106.667L107.374 107.374L108.081 106.667Z" fill="#F47C7C"/>
<path d="M116.97 106.667L116.263 105.96L115.555 106.667L116.263 107.374L116.97 106.667Z" fill="#F47C7C"/>
<path d="M125.859 106.667L125.152 105.96L124.444 106.667L125.152 107.374L125.859 106.667Z" fill="#F47C7C"/>
<path d="M134.747 106.667L134.04 105.96L133.333 106.667L134.04 107.374L134.747 106.667Z" fill="#F47C7C"/>
<path d="M143.636 106.667L142.929 105.96L142.222 106.667L142.929 107.374L143.636 106.667Z" fill="#F47C7C"/>
<path d="M152.525 106.667L151.818 105.96L151.111 106.667L151.818 107.374L152.525 106.667Z" fill="#F47C7C"/>
<path d="M161.414 106.667L160.707 105.96L160 106.667L160.707 107.374L161.414 106.667Z" fill="#F47C7C"/>
<path d="M1.41415 115.556L0.707046 114.849L-6.10352e-05 115.556L0.707046 116.263L1.41415 115.556Z" fill="#F47C7C"/>
<path d="M10.3031 115.556L9.59597 114.849L8.88886 115.556L9.59597 116.263L10.3031 115.556Z" fill="#F47C7C"/>
<path d="M19.1919 115.556L18.4848 114.849L17.7777 115.556L18.4848 116.263L19.1919 115.556Z" fill="#F47C7C"/>
<path d="M28.0808 115.556L27.3737 114.849L26.6666 115.556L27.3737 116.263L28.0808 115.556Z" fill="#F47C7C"/>
<path d="M36.9698 115.556L36.2626 114.849L35.5555 115.556L36.2626 116.263L36.9698 115.556Z" fill="#F47C7C"/>
<path d="M45.8586 115.556L45.1515 114.849L44.4444 115.556L45.1515 116.263L45.8586 115.556Z" fill="#F47C7C"/>
<path d="M54.7475 115.556L54.0404 114.849L53.3333 115.556L54.0404 116.263L54.7475 115.556Z" fill="#F47C7C"/>
<path d="M63.6363 115.556L62.9292 114.849L62.2221 115.556L62.9292 116.263L63.6363 115.556Z" fill="#F47C7C"/>
<path d="M72.5252 115.556L71.8181 114.849L71.111 115.556L71.8181 116.263L72.5252 115.556Z" fill="#F47C7C"/>
<path d="M81.4142 115.556L80.7071 114.849L80 115.556L80.7071 116.263L81.4142 115.556Z" fill="#F47C7C"/>
<path d="M90.303 115.556L89.5959 114.849L88.8888 115.556L89.5959 116.263L90.303 115.556Z" fill="#F47C7C"/>
<path d="M99.1919 115.556L98.4848 114.849L97.7777 115.556L98.4848 116.263L99.1919 115.556Z" fill="#F47C7C"/>
<path d="M108.081 115.556L107.374 114.849L106.667 115.556L107.374 116.263L108.081 115.556Z" fill="#F47C7C"/>
<path d="M116.97 115.556L116.263 114.849L115.555 115.556L116.263 116.263L116.97 115.556Z" fill="#F47C7C"/>
<path d="M125.859 115.556L125.152 114.849L124.444 115.556L125.152 116.263L125.859 115.556Z" fill="#F47C7C"/>
<path d="M134.747 115.556L134.04 114.849L133.333 115.556L134.04 116.263L134.747 115.556Z" fill="#F47C7C"/>
<path d="M143.636 115.556L142.929 114.849L142.222 115.556L142.929 116.263L143.636 115.556Z" fill="#F47C7C"/>
<path d="M152.525 115.556L151.818 114.849L151.111 115.556L151.818 116.263L152.525 115.556Z" fill="#F47C7C"/>
<path d="M161.414 115.556L160.707 114.849L160 115.556L160.707 116.263L161.414 115.556Z" fill="#F47C7C"/>
<path d="M1.41415 124.444L0.707046 123.737L-6.10352e-05 124.444L0.707046 125.152L1.41415 124.444Z" fill="#F47C7C"/>
<path d="M10.3031 124.444L9.59597 123.737L8.88886 124.444L9.59597 125.152L10.3031 124.444Z" fill="#F47C7C"/>
<path d="M19.1919 124.444L18.4848 123.737L17.7777 124.444L18.4848 125.152L19.1919 124.444Z" fill="#F47C7C"/>
<path d="M28.0808 124.444L27.3737 123.737L26.6666 124.444L27.3737 125.152L28.0808 124.444Z" fill="#F47C7C"/>
<path d="M36.9698 124.444L36.2626 123.737L35.5555 124.444L36.2626 125.152L36.9698 124.444Z" fill="#F47C7C"/>
<path d="M45.8586 124.444L45.1515 123.737L44.4444 124.444L45.1515 125.152L45.8586 124.444Z" fill="#F47C7C"/>
<path d="M54.7475 124.444L54.0404 123.737L53.3333 124.444L54.0404 125.152L54.7475 124.444Z" fill="#F47C7C"/>
<path d="M63.6363 124.444L62.9292 123.737L62.2221 124.444L62.9292 125.152L63.6363 124.444Z" fill="#F47C7C"/>
<path d="M72.5252 124.444L71.8181 123.737L71.111 124.444L71.8181 125.152L72.5252 124.444Z" fill="#F47C7C"/>
<path d="M81.4142 124.444L80.7071 123.737L80 124.444L80.7071 125.152L81.4142 124.444Z" fill="#F47C7C"/>
<path d="M90.303 124.444L89.5959 123.737L88.8888 124.444L89.5959 125.152L90.303 124.444Z" fill="#F47C7C"/>
<path d="M99.1919 124.444L98.4848 123.737L97.7777 124.444L98.4848 125.152L99.1919 124.444Z" fill="#F47C7C"/>
<path d="M108.081 124.444L107.374 123.737L106.667 124.444L107.374 125.152L108.081 124.444Z" fill="#F47C7C"/>
<path d="M116.97 124.444L116.263 123.737L115.555 124.444L116.263 125.152L116.97 124.444Z" fill="#F47C7C"/>
<path d="M125.859 124.444L125.152 123.737L124.444 124.444L125.152 125.152L125.859 124.444Z" fill="#F47C7C"/>
<path d="M134.747 124.444L134.04 123.737L133.333 124.444L134.04 125.152L134.747 124.444Z" fill="#F47C7C"/>
<path d="M143.636 124.444L142.929 123.737L142.222 124.444L142.929 125.152L143.636 124.444Z" fill="#F47C7C"/>
<path d="M152.525 124.444L151.818 123.737L151.111 124.444L151.818 125.152L152.525 124.444Z" fill="#F47C7C"/>
<path d="M161.414 124.444L160.707 123.737L160 124.444L160.707 125.152L161.414 124.444Z" fill="#F47C7C"/>
<path d="M1.41415 133.334L0.707046 132.626L-6.10352e-05 133.334L0.707046 134.041L1.41415 133.334Z" fill="#F47C7C"/>
<path d="M10.3031 133.334L9.59597 132.626L8.88886 133.334L9.59597 134.041L10.3031 133.334Z" fill="#F47C7C"/>
<path d="M19.1919 133.334L18.4848 132.626L17.7777 133.334L18.4848 134.041L19.1919 133.334Z" fill="#F47C7C"/>
<path d="M28.0808 133.334L27.3737 132.626L26.6666 133.334L27.3737 134.041L28.0808 133.334Z" fill="#F47C7C"/>
<path d="M36.9698 133.334L36.2626 132.626L35.5555 133.334L36.2626 134.041L36.9698 133.334Z" fill="#F47C7C"/>
<path d="M45.8586 133.334L45.1515 132.626L44.4444 133.334L45.1515 134.041L45.8586 133.334Z" fill="#F47C7C"/>
<path d="M54.7475 133.334L54.0404 132.626L53.3333 133.334L54.0404 134.041L54.7475 133.334Z" fill="#F47C7C"/>
<path d="M63.6363 133.334L62.9292 132.626L62.2221 133.334L62.9292 134.041L63.6363 133.334Z" fill="#F47C7C"/>
<path d="M72.5252 133.334L71.8181 132.626L71.111 133.334L71.8181 134.041L72.5252 133.334Z" fill="#F47C7C"/>
<path d="M81.4142 133.334L80.7071 132.626L80 133.334L80.7071 134.041L81.4142 133.334Z" fill="#F47C7C"/>
<path d="M90.303 133.334L89.5959 132.626L88.8888 133.334L89.5959 134.041L90.303 133.334Z" fill="#F47C7C"/>
<path d="M99.1919 133.334L98.4848 132.626L97.7777 133.334L98.4848 134.041L99.1919 133.334Z" fill="#F47C7C"/>
<path d="M108.081 133.334L107.374 132.626L106.667 133.334L107.374 134.041L108.081 133.334Z" fill="#F47C7C"/>
<path d="M116.97 133.334L116.263 132.626L115.555 133.334L116.263 134.041L116.97 133.334Z" fill="#F47C7C"/>
<path d="M125.859 133.334L125.152 132.626L124.444 133.334L125.152 134.041L125.859 133.334Z" fill="#F47C7C"/>
<path d="M134.747 133.334L134.04 132.626L133.333 133.334L134.04 134.041L134.747 133.334Z" fill="#F47C7C"/>
<path d="M143.636 133.334L142.929 132.626L142.222 133.334L142.929 134.041L143.636 133.334Z" fill="#F47C7C"/>
<path d="M152.525 133.334L151.818 132.626L151.111 133.334L151.818 134.041L152.525 133.334Z" fill="#F47C7C"/>
<path d="M161.414 133.334L160.707 132.626L160 133.334L160.707 134.041L161.414 133.334Z" fill="#F47C7C"/>
<path d="M1.41415 142.222L0.707046 141.515L-6.10352e-05 142.222L0.707046 142.929L1.41415 142.222Z" fill="#F47C7C"/>
<path d="M10.3031 142.222L9.59597 141.515L8.88886 142.222L9.59597 142.929L10.3031 142.222Z" fill="#F47C7C"/>
<path d="M19.1919 142.222L18.4848 141.515L17.7777 142.222L18.4848 142.929L19.1919 142.222Z" fill="#F47C7C"/>
<path d="M28.0808 142.222L27.3737 141.515L26.6666 142.222L27.3737 142.929L28.0808 142.222Z" fill="#F47C7C"/>
<path d="M36.9698 142.222L36.2626 141.515L35.5555 142.222L36.2626 142.929L36.9698 142.222Z" fill="#F47C7C"/>
<path d="M45.8586 142.222L45.1515 141.515L44.4444 142.222L45.1515 142.929L45.8586 142.222Z" fill="#F47C7C"/>
<path d="M54.7475 142.222L54.0404 141.515L53.3333 142.222L54.0404 142.929L54.7475 142.222Z" fill="#F47C7C"/>
<path d="M63.6363 142.222L62.9292 141.515L62.2221 142.222L62.9292 142.929L63.6363 142.222Z" fill="#F47C7C"/>
<path d="M72.5252 142.222L71.8181 141.515L71.111 142.222L71.8181 142.929L72.5252 142.222Z" fill="#F47C7C"/>
<path d="M81.4142 142.222L80.7071 141.515L80 142.222L80.7071 142.929L81.4142 142.222Z" fill="#F47C7C"/>
<path d="M90.303 142.222L89.5959 141.515L88.8888 142.222L89.5959 142.929L90.303 142.222Z" fill="#F47C7C"/>
<path d="M99.1919 142.222L98.4848 141.515L97.7777 142.222L98.4848 142.929L99.1919 142.222Z" fill="#F47C7C"/>
<path d="M108.081 142.222L107.374 141.515L106.667 142.222L107.374 142.929L108.081 142.222Z" fill="#F47C7C"/>
<path d="M116.97 142.222L116.263 141.515L115.555 142.222L116.263 142.929L116.97 142.222Z" fill="#F47C7C"/>
<path d="M125.859 142.222L125.152 141.515L124.444 142.222L125.152 142.929L125.859 142.222Z" fill="#F47C7C"/>
<path d="M134.747 142.222L134.04 141.515L133.333 142.222L134.04 142.929L134.747 142.222Z" fill="#F47C7C"/>
<path d="M143.636 142.222L142.929 141.515L142.222 142.222L142.929 142.929L143.636 142.222Z" fill="#F47C7C"/>
<path d="M152.525 142.222L151.818 141.515L151.111 142.222L151.818 142.929L152.525 142.222Z" fill="#F47C7C"/>
<path d="M161.414 142.222L160.707 141.515L160 142.222L160.707 142.929L161.414 142.222Z" fill="#F47C7C"/>
<path d="M1.41415 151.111L0.707046 150.404L-6.10352e-05 151.111L0.707046 151.818L1.41415 151.111Z" fill="#F47C7C"/>
<path d="M10.3031 151.111L9.59597 150.404L8.88886 151.111L9.59597 151.818L10.3031 151.111Z" fill="#F47C7C"/>
<path d="M19.1919 151.111L18.4848 150.404L17.7777 151.111L18.4848 151.818L19.1919 151.111Z" fill="#F47C7C"/>
<path d="M28.0808 151.111L27.3737 150.404L26.6666 151.111L27.3737 151.818L28.0808 151.111Z" fill="#F47C7C"/>
<path d="M36.9698 151.111L36.2626 150.404L35.5555 151.111L36.2626 151.818L36.9698 151.111Z" fill="#F47C7C"/>
<path d="M45.8586 151.111L45.1515 150.404L44.4444 151.111L45.1515 151.818L45.8586 151.111Z" fill="#F47C7C"/>
<path d="M54.7475 151.111L54.0404 150.404L53.3333 151.111L54.0404 151.818L54.7475 151.111Z" fill="#F47C7C"/>
<path d="M63.6363 151.111L62.9292 150.404L62.2221 151.111L62.9292 151.818L63.6363 151.111Z" fill="#F47C7C"/>
<path d="M72.5252 151.111L71.8181 150.404L71.111 151.111L71.8181 151.818L72.5252 151.111Z" fill="#F47C7C"/>
<path d="M81.4142 151.111L80.7071 150.404L80 151.111L80.7071 151.818L81.4142 151.111Z" fill="#F47C7C"/>
<path d="M90.303 151.111L89.5959 150.404L88.8888 151.111L89.5959 151.818L90.303 151.111Z" fill="#F47C7C"/>
<path d="M99.1919 151.111L98.4848 150.404L97.7777 151.111L98.4848 151.818L99.1919 151.111Z" fill="#F47C7C"/>
<path d="M108.081 151.111L107.374 150.404L106.667 151.111L107.374 151.818L108.081 151.111Z" fill="#F47C7C"/>
<path d="M116.97 151.111L116.263 150.404L115.555 151.111L116.263 151.818L116.97 151.111Z" fill="#F47C7C"/>
<path d="M125.859 151.111L125.152 150.404L124.444 151.111L125.152 151.818L125.859 151.111Z" fill="#F47C7C"/>
<path d="M134.747 151.111L134.04 150.404L133.333 151.111L134.04 151.818L134.747 151.111Z" fill="#F47C7C"/>
<path d="M143.636 151.111L142.929 150.404L142.222 151.111L142.929 151.818L143.636 151.111Z" fill="#F47C7C"/>
<path d="M152.525 151.111L151.818 150.404L151.111 151.111L151.818 151.818L152.525 151.111Z" fill="#F47C7C"/>
<path d="M161.414 151.111L160.707 150.404L160 151.111L160.707 151.818L161.414 151.111Z" fill="#F47C7C"/>
<path d="M1.41415 160L0.707046 159.293L-6.10352e-05 160L0.707046 160.707L1.41415 160Z" fill="#F47C7C"/>
<path d="M10.3031 160L9.59597 159.293L8.88886 160L9.59597 160.707L10.3031 160Z" fill="#F47C7C"/>
<path d="M19.1919 160L18.4848 159.293L17.7777 160L18.4848 160.707L19.1919 160Z" fill="#F47C7C"/>
<path d="M28.0808 160L27.3737 159.293L26.6666 160L27.3737 160.707L28.0808 160Z" fill="#F47C7C"/>
<path d="M36.9698 160L36.2626 159.293L35.5555 160L36.2626 160.707L36.9698 160Z" fill="#F47C7C"/>
<path d="M45.8586 160L45.1515 159.293L44.4444 160L45.1515 160.707L45.8586 160Z" fill="#F47C7C"/>
<path d="M54.7475 160L54.0404 159.293L53.3333 160L54.0404 160.707L54.7475 160Z" fill="#F47C7C"/>
<path d="M63.6363 160L62.9292 159.293L62.2221 160L62.9292 160.707L63.6363 160Z" fill="#F47C7C"/>
<path d="M72.5252 160L71.8181 159.293L71.111 160L71.8181 160.707L72.5252 160Z" fill="#F47C7C"/>
<path d="M81.4142 160L80.7071 159.293L80 160L80.7071 160.707L81.4142 160Z" fill="#F47C7C"/>
<path d="M90.303 160L89.5959 159.293L88.8888 160L89.5959 160.707L90.303 160Z" fill="#F47C7C"/>
<path d="M99.1919 160L98.4848 159.293L97.7777 160L98.4848 160.707L99.1919 160Z" fill="#F47C7C"/>
<path d="M108.081 160L107.374 159.293L106.667 160L107.374 160.707L108.081 160Z" fill="#F47C7C"/>
<path d="M116.97 160L116.263 159.293L115.555 160L116.263 160.707L116.97 160Z" fill="#F47C7C"/>
<path d="M125.859 160L125.152 159.293L124.444 160L125.152 160.707L125.859 160Z" fill="#F47C7C"/>
<path d="M134.747 160L134.04 159.293L133.333 160L134.04 160.707L134.747 160Z" fill="#F47C7C"/>
<path d="M143.636 160L142.929 159.293L142.222 160L142.929 160.707L143.636 160Z" fill="#F47C7C"/>
<path d="M152.525 160L151.818 159.293L151.111 160L151.818 160.707L152.525 160Z" fill="#F47C7C"/>
<path d="M161.414 160L160.707 159.293L160 160L160.707 160.707L161.414 160Z" fill="#F47C7C"/>
<path d="M90.3042 1.44839e-05L89.5971 -0.707092L88.89 1.44839e-05L89.5971 0.707121L90.3042 1.44839e-05Z" fill="#F47C7C"/>
<path d="M99.1931 1.44839e-05L98.486 -0.707092L97.7789 1.44839e-05L98.486 0.707121L99.1931 1.44839e-05Z" fill="#F47C7C"/>
<path d="M108.082 1.44839e-05L107.375 -0.707092L106.668 1.44839e-05L107.375 0.707121L108.082 1.44839e-05Z" fill="#F47C7C"/>
<path d="M116.971 1.44839e-05L116.264 -0.707092L115.557 1.44839e-05L116.264 0.707121L116.971 1.44839e-05Z" fill="#F47C7C"/>
<path d="M125.86 1.44839e-05L125.153 -0.707092L124.446 1.44839e-05L125.153 0.707121L125.86 1.44839e-05Z" fill="#F47C7C"/>
<path d="M134.749 1.44839e-05L134.042 -0.707092L133.334 1.44839e-05L134.042 0.707121L134.749 1.44839e-05Z" fill="#F47C7C"/>
<path d="M143.638 1.44839e-05L142.93 -0.707092L142.223 1.44839e-05L142.93 0.707121L143.638 1.44839e-05Z" fill="#F47C7C"/>
<path d="M152.526 1.44839e-05L151.819 -0.707092L151.112 1.44839e-05L151.819 0.707121L152.526 1.44839e-05Z" fill="#F47C7C"/>
<path d="M161.415 1.44839e-05L160.708 -0.707092L160.001 1.44839e-05L160.708 0.707121L161.415 1.44839e-05Z" fill="#F47C7C"/>
<path d="M170.304 1.44839e-05L169.597 -0.707092L168.89 1.44839e-05L169.597 0.707121L170.304 1.44839e-05Z" fill="#F47C7C"/>
<path d="M179.193 1.44839e-05L178.486 -0.707092L177.779 1.44839e-05L178.486 0.707121L179.193 1.44839e-05Z" fill="#F47C7C"/>
<path d="M188.082 1.44839e-05L187.375 -0.707092L186.668 1.44839e-05L187.375 0.707121L188.082 1.44839e-05Z" fill="#F47C7C"/>
<path d="M196.971 1.44839e-05L196.264 -0.707092L195.557 1.44839e-05L196.264 0.707121L196.971 1.44839e-05Z" fill="#F47C7C"/>
<path d="M205.86 1.44839e-05L205.153 -0.707092L204.446 1.44839e-05L205.153 0.707121L205.86 1.44839e-05Z" fill="#F47C7C"/>
<path d="M214.749 1.44839e-05L214.042 -0.707092L213.334 1.44839e-05L214.042 0.707121L214.749 1.44839e-05Z" fill="#F47C7C"/>
<path d="M223.637 1.44839e-05L222.93 -0.707092L222.223 1.44839e-05L222.93 0.707121L223.637 1.44839e-05Z" fill="#F47C7C"/>
<path d="M232.526 1.44839e-05L231.819 -0.707092L231.112 1.44839e-05L231.819 0.707121L232.526 1.44839e-05Z" fill="#F47C7C"/>
<path d="M241.415 1.44839e-05L240.708 -0.707092L240.001 1.44839e-05L240.708 0.707121L241.415 1.44839e-05Z" fill="#F47C7C"/>
<path d="M250.304 1.44839e-05L249.597 -0.707092L248.89 1.44839e-05L249.597 0.707121L250.304 1.44839e-05Z" fill="#F47C7C"/>
<path d="M90.3042 8.88894L89.5971 8.18183L88.89 8.88894L89.5971 9.59605L90.3042 8.88894Z" fill="#F47C7C"/>
<path d="M99.1931 8.88894L98.486 8.18183L97.7789 8.88894L98.486 9.59605L99.1931 8.88894Z" fill="#F47C7C"/>
<path d="M108.082 8.88894L107.375 8.18183L106.668 8.88894L107.375 9.59605L108.082 8.88894Z" fill="#F47C7C"/>
<path d="M116.971 8.88894L116.264 8.18183L115.557 8.88894L116.264 9.59605L116.971 8.88894Z" fill="#F47C7C"/>
<path d="M125.86 8.88894L125.153 8.18183L124.446 8.88894L125.153 9.59605L125.86 8.88894Z" fill="#F47C7C"/>
<path d="M134.749 8.88894L134.042 8.18183L133.334 8.88894L134.042 9.59605L134.749 8.88894Z" fill="#F47C7C"/>
<path d="M143.638 8.88894L142.93 8.18183L142.223 8.88894L142.93 9.59605L143.638 8.88894Z" fill="#F47C7C"/>
<path d="M152.526 8.88894L151.819 8.18183L151.112 8.88894L151.819 9.59605L152.526 8.88894Z" fill="#F47C7C"/>
<path d="M161.415 8.88894L160.708 8.18183L160.001 8.88894L160.708 9.59605L161.415 8.88894Z" fill="#F47C7C"/>
<path d="M170.304 8.88894L169.597 8.18183L168.89 8.88894L169.597 9.59605L170.304 8.88894Z" fill="#F47C7C"/>
<path d="M179.193 8.88894L178.486 8.18183L177.779 8.88894L178.486 9.59605L179.193 8.88894Z" fill="#F47C7C"/>
<path d="M188.082 8.88894L187.375 8.18183L186.668 8.88894L187.375 9.59605L188.082 8.88894Z" fill="#F47C7C"/>
<path d="M196.971 8.88894L196.264 8.18183L195.557 8.88894L196.264 9.59605L196.971 8.88894Z" fill="#F47C7C"/>
<path d="M205.86 8.88894L205.153 8.18183L204.446 8.88894L205.153 9.59605L205.86 8.88894Z" fill="#F47C7C"/>
<path d="M214.749 8.88894L214.042 8.18183L213.334 8.88894L214.042 9.59605L214.749 8.88894Z" fill="#F47C7C"/>
<path d="M223.637 8.88894L222.93 8.18183L222.223 8.88894L222.93 9.59605L223.637 8.88894Z" fill="#F47C7C"/>
<path d="M232.526 8.88894L231.819 8.18183L231.112 8.88894L231.819 9.59605L232.526 8.88894Z" fill="#F47C7C"/>
<path d="M241.415 8.88894L240.708 8.18183L240.001 8.88894L240.708 9.59605L241.415 8.88894Z" fill="#F47C7C"/>
<path d="M250.304 8.88894L249.597 8.18183L248.89 8.88894L249.597 9.59605L250.304 8.88894Z" fill="#F47C7C"/>
<path d="M90.3042 17.7779L89.5971 17.0708L88.89 17.7779L89.5971 18.485L90.3042 17.7779Z" fill="#F47C7C"/>
<path d="M99.1931 17.7779L98.486 17.0708L97.7789 17.7779L98.486 18.485L99.1931 17.7779Z" fill="#F47C7C"/>
<path d="M108.082 17.7779L107.375 17.0708L106.668 17.7779L107.375 18.485L108.082 17.7779Z" fill="#F47C7C"/>
<path d="M116.971 17.7779L116.264 17.0708L115.557 17.7779L116.264 18.485L116.971 17.7779Z" fill="#F47C7C"/>
<path d="M125.86 17.7779L125.153 17.0708L124.446 17.7779L125.153 18.485L125.86 17.7779Z" fill="#F47C7C"/>
<path d="M134.749 17.7779L134.042 17.0708L133.334 17.7779L134.042 18.485L134.749 17.7779Z" fill="#F47C7C"/>
<path d="M143.638 17.7779L142.93 17.0708L142.223 17.7779L142.93 18.485L143.638 17.7779Z" fill="#F47C7C"/>
<path d="M152.526 17.7779L151.819 17.0708L151.112 17.7779L151.819 18.485L152.526 17.7779Z" fill="#F47C7C"/>
<path d="M161.415 17.7779L160.708 17.0708L160.001 17.7779L160.708 18.485L161.415 17.7779Z" fill="#F47C7C"/>
<path d="M170.304 17.7779L169.597 17.0708L168.89 17.7779L169.597 18.485L170.304 17.7779Z" fill="#F47C7C"/>
<path d="M179.193 17.7779L178.486 17.0708L177.779 17.7779L178.486 18.485L179.193 17.7779Z" fill="#F47C7C"/>
<path d="M188.082 17.7779L187.375 17.0708L186.668 17.7779L187.375 18.485L188.082 17.7779Z" fill="#F47C7C"/>
<path d="M196.971 17.7779L196.264 17.0708L195.557 17.7779L196.264 18.485L196.971 17.7779Z" fill="#F47C7C"/>
<path d="M205.86 17.7779L205.153 17.0708L204.446 17.7779L205.153 18.485L205.86 17.7779Z" fill="#F47C7C"/>
<path d="M214.749 17.7779L214.042 17.0708L213.334 17.7779L214.042 18.485L214.749 17.7779Z" fill="#F47C7C"/>
<path d="M223.637 17.7779L222.93 17.0708L222.223 17.7779L222.93 18.485L223.637 17.7779Z" fill="#F47C7C"/>
<path d="M232.526 17.7779L231.819 17.0708L231.112 17.7779L231.819 18.485L232.526 17.7779Z" fill="#F47C7C"/>
<path d="M241.415 17.7779L240.708 17.0708L240.001 17.7779L240.708 18.485L241.415 17.7779Z" fill="#F47C7C"/>
<path d="M250.304 17.7779L249.597 17.0708L248.89 17.7779L249.597 18.485L250.304 17.7779Z" fill="#F47C7C"/>
<path d="M90.3042 26.6668L89.5971 25.9597L88.89 26.6668L89.5971 27.3739L90.3042 26.6668Z" fill="#F47C7C"/>
<path d="M99.1931 26.6668L98.486 25.9597L97.7789 26.6668L98.486 27.3739L99.1931 26.6668Z" fill="#F47C7C"/>
<path d="M108.082 26.6668L107.375 25.9597L106.668 26.6668L107.375 27.3739L108.082 26.6668Z" fill="#F47C7C"/>
<path d="M116.971 26.6668L116.264 25.9597L115.557 26.6668L116.264 27.3739L116.971 26.6668Z" fill="#F47C7C"/>
<path d="M125.86 26.6668L125.153 25.9597L124.446 26.6668L125.153 27.3739L125.86 26.6668Z" fill="#F47C7C"/>
<path d="M134.749 26.6668L134.042 25.9597L133.334 26.6668L134.042 27.3739L134.749 26.6668Z" fill="#F47C7C"/>
<path d="M143.638 26.6668L142.93 25.9597L142.223 26.6668L142.93 27.3739L143.638 26.6668Z" fill="#F47C7C"/>
<path d="M152.526 26.6668L151.819 25.9597L151.112 26.6668L151.819 27.3739L152.526 26.6668Z" fill="#F47C7C"/>
<path d="M161.415 26.6668L160.708 25.9597L160.001 26.6668L160.708 27.3739L161.415 26.6668Z" fill="#F47C7C"/>
<path d="M170.304 26.6668L169.597 25.9597L168.89 26.6668L169.597 27.3739L170.304 26.6668Z" fill="#F47C7C"/>
<path d="M179.193 26.6668L178.486 25.9597L177.779 26.6668L178.486 27.3739L179.193 26.6668Z" fill="#F47C7C"/>
<path d="M188.082 26.6668L187.375 25.9597L186.668 26.6668L187.375 27.3739L188.082 26.6668Z" fill="#F47C7C"/>
<path d="M196.971 26.6668L196.264 25.9597L195.557 26.6668L196.264 27.3739L196.971 26.6668Z" fill="#F47C7C"/>
<path d="M205.86 26.6668L205.153 25.9597L204.446 26.6668L205.153 27.3739L205.86 26.6668Z" fill="#F47C7C"/>
<path d="M214.749 26.6668L214.042 25.9597L213.334 26.6668L214.042 27.3739L214.749 26.6668Z" fill="#F47C7C"/>
<path d="M223.637 26.6668L222.93 25.9597L222.223 26.6668L222.93 27.3739L223.637 26.6668Z" fill="#F47C7C"/>
<path d="M232.526 26.6668L231.819 25.9597L231.112 26.6668L231.819 27.3739L232.526 26.6668Z" fill="#F47C7C"/>
<path d="M241.415 26.6668L240.708 25.9597L240.001 26.6668L240.708 27.3739L241.415 26.6668Z" fill="#F47C7C"/>
<path d="M250.304 26.6668L249.597 25.9597L248.89 26.6668L249.597 27.3739L250.304 26.6668Z" fill="#F47C7C"/>
<path d="M90.3042 35.5556L89.5971 34.8485L88.89 35.5556L89.5971 36.2627L90.3042 35.5556Z" fill="#F47C7C"/>
<path d="M99.1931 35.5556L98.486 34.8485L97.7789 35.5556L98.486 36.2627L99.1931 35.5556Z" fill="#F47C7C"/>
<path d="M108.082 35.5556L107.375 34.8485L106.668 35.5556L107.375 36.2627L108.082 35.5556Z" fill="#F47C7C"/>
<path d="M116.971 35.5556L116.264 34.8485L115.557 35.5556L116.264 36.2627L116.971 35.5556Z" fill="#F47C7C"/>
<path d="M125.86 35.5556L125.153 34.8485L124.446 35.5556L125.153 36.2627L125.86 35.5556Z" fill="#F47C7C"/>
<path d="M134.749 35.5556L134.042 34.8485L133.334 35.5556L134.042 36.2627L134.749 35.5556Z" fill="#F47C7C"/>
<path d="M143.638 35.5556L142.93 34.8485L142.223 35.5556L142.93 36.2627L143.638 35.5556Z" fill="#F47C7C"/>
<path d="M152.526 35.5556L151.819 34.8485L151.112 35.5556L151.819 36.2627L152.526 35.5556Z" fill="#F47C7C"/>
<path d="M161.415 35.5556L160.708 34.8485L160.001 35.5556L160.708 36.2627L161.415 35.5556Z" fill="#F47C7C"/>
<path d="M170.304 35.5556L169.597 34.8485L168.89 35.5556L169.597 36.2627L170.304 35.5556Z" fill="#F47C7C"/>
<path d="M179.193 35.5556L178.486 34.8485L177.779 35.5556L178.486 36.2627L179.193 35.5556Z" fill="#F47C7C"/>
<path d="M188.082 35.5556L187.375 34.8485L186.668 35.5556L187.375 36.2627L188.082 35.5556Z" fill="#F47C7C"/>
<path d="M196.971 35.5556L196.264 34.8485L195.557 35.5556L196.264 36.2627L196.971 35.5556Z" fill="#F47C7C"/>
<path d="M205.86 35.5556L205.153 34.8485L204.446 35.5556L205.153 36.2627L205.86 35.5556Z" fill="#F47C7C"/>
<path d="M214.749 35.5556L214.042 34.8485L213.334 35.5556L214.042 36.2627L214.749 35.5556Z" fill="#F47C7C"/>
<path d="M223.637 35.5556L222.93 34.8485L222.223 35.5556L222.93 36.2627L223.637 35.5556Z" fill="#F47C7C"/>
<path d="M232.526 35.5556L231.819 34.8485L231.112 35.5556L231.819 36.2627L232.526 35.5556Z" fill="#F47C7C"/>
<path d="M241.415 35.5556L240.708 34.8485L240.001 35.5556L240.708 36.2627L241.415 35.5556Z" fill="#F47C7C"/>
<path d="M250.304 35.5556L249.597 34.8485L248.89 35.5556L249.597 36.2627L250.304 35.5556Z" fill="#F47C7C"/>
<path d="M90.3042 44.4445L89.5971 43.7374L88.89 44.4445L89.5971 45.1517L90.3042 44.4445Z" fill="#F47C7C"/>
<path d="M99.1931 44.4445L98.486 43.7374L97.7789 44.4445L98.486 45.1517L99.1931 44.4445Z" fill="#F47C7C"/>
<path d="M108.082 44.4445L107.375 43.7374L106.668 44.4445L107.375 45.1517L108.082 44.4445Z" fill="#F47C7C"/>
<path d="M116.971 44.4445L116.264 43.7374L115.557 44.4445L116.264 45.1517L116.971 44.4445Z" fill="#F47C7C"/>
<path d="M125.86 44.4445L125.153 43.7374L124.446 44.4445L125.153 45.1517L125.86 44.4445Z" fill="#F47C7C"/>
<path d="M134.749 44.4445L134.042 43.7374L133.334 44.4445L134.042 45.1517L134.749 44.4445Z" fill="#F47C7C"/>
<path d="M143.638 44.4445L142.93 43.7374L142.223 44.4445L142.93 45.1517L143.638 44.4445Z" fill="#F47C7C"/>
<path d="M152.526 44.4445L151.819 43.7374L151.112 44.4445L151.819 45.1517L152.526 44.4445Z" fill="#F47C7C"/>
<path d="M161.415 44.4445L160.708 43.7374L160.001 44.4445L160.708 45.1517L161.415 44.4445Z" fill="#F47C7C"/>
<path d="M170.304 44.4445L169.597 43.7374L168.89 44.4445L169.597 45.1517L170.304 44.4445Z" fill="#F47C7C"/>
<path d="M179.193 44.4445L178.486 43.7374L177.779 44.4445L178.486 45.1517L179.193 44.4445Z" fill="#F47C7C"/>
<path d="M188.082 44.4445L187.375 43.7374L186.668 44.4445L187.375 45.1517L188.082 44.4445Z" fill="#F47C7C"/>
<path d="M196.971 44.4445L196.264 43.7374L195.557 44.4445L196.264 45.1517L196.971 44.4445Z" fill="#F47C7C"/>
<path d="M205.86 44.4445L205.153 43.7374L204.446 44.4445L205.153 45.1517L205.86 44.4445Z" fill="#F47C7C"/>
<path d="M214.749 44.4445L214.042 43.7374L213.334 44.4445L214.042 45.1517L214.749 44.4445Z" fill="#F47C7C"/>
<path d="M223.637 44.4445L222.93 43.7374L222.223 44.4445L222.93 45.1517L223.637 44.4445Z" fill="#F47C7C"/>
<path d="M232.526 44.4445L231.819 43.7374L231.112 44.4445L231.819 45.1517L232.526 44.4445Z" fill="#F47C7C"/>
<path d="M241.415 44.4445L240.708 43.7374L240.001 44.4445L240.708 45.1517L241.415 44.4445Z" fill="#F47C7C"/>
<path d="M250.304 44.4445L249.597 43.7374L248.89 44.4445L249.597 45.1517L250.304 44.4445Z" fill="#F47C7C"/>
<path d="M90.3042 53.3335L89.5971 52.6264L88.89 53.3335L89.5971 54.0406L90.3042 53.3335Z" fill="#F47C7C"/>
<path d="M99.1931 53.3335L98.486 52.6264L97.7789 53.3335L98.486 54.0406L99.1931 53.3335Z" fill="#F47C7C"/>
<path d="M108.082 53.3335L107.375 52.6264L106.668 53.3335L107.375 54.0406L108.082 53.3335Z" fill="#F47C7C"/>
<path d="M116.971 53.3335L116.264 52.6264L115.557 53.3335L116.264 54.0406L116.971 53.3335Z" fill="#F47C7C"/>
<path d="M125.86 53.3335L125.153 52.6264L124.446 53.3335L125.153 54.0406L125.86 53.3335Z" fill="#F47C7C"/>
<path d="M134.749 53.3335L134.042 52.6264L133.334 53.3335L134.042 54.0406L134.749 53.3335Z" fill="#F47C7C"/>
<path d="M143.638 53.3335L142.93 52.6264L142.223 53.3335L142.93 54.0406L143.638 53.3335Z" fill="#F47C7C"/>
<path d="M152.526 53.3335L151.819 52.6264L151.112 53.3335L151.819 54.0406L152.526 53.3335Z" fill="#F47C7C"/>
<path d="M161.415 53.3335L160.708 52.6264L160.001 53.3335L160.708 54.0406L161.415 53.3335Z" fill="#F47C7C"/>
<path d="M170.304 53.3335L169.597 52.6264L168.89 53.3335L169.597 54.0406L170.304 53.3335Z" fill="#F47C7C"/>
<path d="M179.193 53.3335L178.486 52.6264L177.779 53.3335L178.486 54.0406L179.193 53.3335Z" fill="#F47C7C"/>
<path d="M188.082 53.3335L187.375 52.6264L186.668 53.3335L187.375 54.0406L188.082 53.3335Z" fill="#F47C7C"/>
<path d="M196.971 53.3335L196.264 52.6264L195.557 53.3335L196.264 54.0406L196.971 53.3335Z" fill="#F47C7C"/>
<path d="M205.86 53.3335L205.153 52.6264L204.446 53.3335L205.153 54.0406L205.86 53.3335Z" fill="#F47C7C"/>
<path d="M214.749 53.3335L214.042 52.6264L213.334 53.3335L214.042 54.0406L214.749 53.3335Z" fill="#F47C7C"/>
<path d="M223.637 53.3335L222.93 52.6264L222.223 53.3335L222.93 54.0406L223.637 53.3335Z" fill="#F47C7C"/>
<path d="M232.526 53.3335L231.819 52.6264L231.112 53.3335L231.819 54.0406L232.526 53.3335Z" fill="#F47C7C"/>
<path d="M241.415 53.3335L240.708 52.6264L240.001 53.3335L240.708 54.0406L241.415 53.3335Z" fill="#F47C7C"/>
<path d="M250.304 53.3335L249.597 52.6264L248.89 53.3335L249.597 54.0406L250.304 53.3335Z" fill="#F47C7C"/>
<path d="M90.3042 62.2222L89.5971 61.5151L88.89 62.2222L89.5971 62.9293L90.3042 62.2222Z" fill="#F47C7C"/>
<path d="M99.1931 62.2222L98.486 61.5151L97.7789 62.2222L98.486 62.9293L99.1931 62.2222Z" fill="#F47C7C"/>
<path d="M108.082 62.2222L107.375 61.5151L106.668 62.2222L107.375 62.9293L108.082 62.2222Z" fill="#F47C7C"/>
<path d="M116.971 62.2222L116.264 61.5151L115.557 62.2222L116.264 62.9293L116.971 62.2222Z" fill="#F47C7C"/>
<path d="M125.86 62.2222L125.153 61.5151L124.446 62.2222L125.153 62.9293L125.86 62.2222Z" fill="#F47C7C"/>
<path d="M134.749 62.2222L134.042 61.5151L133.334 62.2222L134.042 62.9293L134.749 62.2222Z" fill="#F47C7C"/>
<path d="M143.638 62.2222L142.93 61.5151L142.223 62.2222L142.93 62.9293L143.638 62.2222Z" fill="#F47C7C"/>
<path d="M152.526 62.2222L151.819 61.5151L151.112 62.2222L151.819 62.9293L152.526 62.2222Z" fill="#F47C7C"/>
<path d="M161.415 62.2222L160.708 61.5151L160.001 62.2222L160.708 62.9293L161.415 62.2222Z" fill="#F47C7C"/>
<path d="M170.304 62.2222L169.597 61.5151L168.89 62.2222L169.597 62.9293L170.304 62.2222Z" fill="#F47C7C"/>
<path d="M179.193 62.2222L178.486 61.5151L177.779 62.2222L178.486 62.9293L179.193 62.2222Z" fill="#F47C7C"/>
<path d="M188.082 62.2222L187.375 61.5151L186.668 62.2222L187.375 62.9293L188.082 62.2222Z" fill="#F47C7C"/>
<path d="M196.971 62.2222L196.264 61.5151L195.557 62.2222L196.264 62.9293L196.971 62.2222Z" fill="#F47C7C"/>
<path d="M205.86 62.2222L205.153 61.5151L204.446 62.2222L205.153 62.9293L205.86 62.2222Z" fill="#F47C7C"/>
<path d="M214.749 62.2222L214.042 61.5151L213.334 62.2222L214.042 62.9293L214.749 62.2222Z" fill="#F47C7C"/>
<path d="M223.637 62.2222L222.93 61.5151L222.223 62.2222L222.93 62.9293L223.637 62.2222Z" fill="#F47C7C"/>
<path d="M232.526 62.2222L231.819 61.5151L231.112 62.2222L231.819 62.9293L232.526 62.2222Z" fill="#F47C7C"/>
<path d="M241.415 62.2222L240.708 61.5151L240.001 62.2222L240.708 62.9293L241.415 62.2222Z" fill="#F47C7C"/>
<path d="M250.304 62.2222L249.597 61.5151L248.89 62.2222L249.597 62.9293L250.304 62.2222Z" fill="#F47C7C"/>
<path d="M90.3042 71.1112L89.5971 70.4041L88.89 71.1112L89.5971 71.8183L90.3042 71.1112Z" fill="#F47C7C"/>
<path d="M99.1931 71.1112L98.486 70.4041L97.7789 71.1112L98.486 71.8183L99.1931 71.1112Z" fill="#F47C7C"/>
<path d="M108.082 71.1112L107.375 70.4041L106.668 71.1112L107.375 71.8183L108.082 71.1112Z" fill="#F47C7C"/>
<path d="M116.971 71.1112L116.264 70.4041L115.557 71.1112L116.264 71.8183L116.971 71.1112Z" fill="#F47C7C"/>
<path d="M125.86 71.1112L125.153 70.4041L124.446 71.1112L125.153 71.8183L125.86 71.1112Z" fill="#F47C7C"/>
<path d="M134.749 71.1112L134.042 70.4041L133.334 71.1112L134.042 71.8183L134.749 71.1112Z" fill="#F47C7C"/>
<path d="M143.638 71.1112L142.93 70.4041L142.223 71.1112L142.93 71.8183L143.638 71.1112Z" fill="#F47C7C"/>
<path d="M152.526 71.1112L151.819 70.4041L151.112 71.1112L151.819 71.8183L152.526 71.1112Z" fill="#F47C7C"/>
<path d="M161.415 71.1112L160.708 70.4041L160.001 71.1112L160.708 71.8183L161.415 71.1112Z" fill="#F47C7C"/>
<path d="M170.304 71.1112L169.597 70.4041L168.89 71.1112L169.597 71.8183L170.304 71.1112Z" fill="#F47C7C"/>
<path d="M179.193 71.1112L178.486 70.4041L177.779 71.1112L178.486 71.8183L179.193 71.1112Z" fill="#F47C7C"/>
<path d="M188.082 71.1112L187.375 70.4041L186.668 71.1112L187.375 71.8183L188.082 71.1112Z" fill="#F47C7C"/>
<path d="M196.971 71.1112L196.264 70.4041L195.557 71.1112L196.264 71.8183L196.971 71.1112Z" fill="#F47C7C"/>
<path d="M205.86 71.1112L205.153 70.4041L204.446 71.1112L205.153 71.8183L205.86 71.1112Z" fill="#F47C7C"/>
<path d="M214.749 71.1112L214.042 70.4041L213.334 71.1112L214.042 71.8183L214.749 71.1112Z" fill="#F47C7C"/>
<path d="M223.637 71.1112L222.93 70.4041L222.223 71.1112L222.93 71.8183L223.637 71.1112Z" fill="#F47C7C"/>
<path d="M232.526 71.1112L231.819 70.4041L231.112 71.1112L231.819 71.8183L232.526 71.1112Z" fill="#F47C7C"/>
<path d="M241.415 71.1112L240.708 70.4041L240.001 71.1112L240.708 71.8183L241.415 71.1112Z" fill="#F47C7C"/>
<path d="M250.304 71.1112L249.597 70.4041L248.89 71.1112L249.597 71.8183L250.304 71.1112Z" fill="#F47C7C"/>
<path d="M90.3042 80.0002L89.5971 79.2931L88.89 80.0002L89.5971 80.7073L90.3042 80.0002Z" fill="#F47C7C"/>
<path d="M99.1931 80.0002L98.486 79.2931L97.7789 80.0002L98.486 80.7073L99.1931 80.0002Z" fill="#F47C7C"/>
<path d="M108.082 80.0002L107.375 79.2931L106.668 80.0002L107.375 80.7073L108.082 80.0002Z" fill="#F47C7C"/>
<path d="M116.971 80.0002L116.264 79.2931L115.557 80.0002L116.264 80.7073L116.971 80.0002Z" fill="#F47C7C"/>
<path d="M125.86 80.0002L125.153 79.2931L124.446 80.0002L125.153 80.7073L125.86 80.0002Z" fill="#F47C7C"/>
<path d="M134.749 80.0002L134.042 79.2931L133.334 80.0002L134.042 80.7073L134.749 80.0002Z" fill="#F47C7C"/>
<path d="M143.638 80.0002L142.93 79.2931L142.223 80.0002L142.93 80.7073L143.638 80.0002Z" fill="#F47C7C"/>
<path d="M152.526 80.0002L151.819 79.2931L151.112 80.0002L151.819 80.7073L152.526 80.0002Z" fill="#F47C7C"/>
<path d="M161.415 80.0002L160.708 79.2931L160.001 80.0002L160.708 80.7073L161.415 80.0002Z" fill="#F47C7C"/>
<path d="M170.304 80.0002L169.597 79.2931L168.89 80.0002L169.597 80.7073L170.304 80.0002Z" fill="#F47C7C"/>
<path d="M179.193 80.0002L178.486 79.2931L177.779 80.0002L178.486 80.7073L179.193 80.0002Z" fill="#F47C7C"/>
<path d="M188.082 80.0002L187.375 79.2931L186.668 80.0002L187.375 80.7073L188.082 80.0002Z" fill="#F47C7C"/>
<path d="M196.971 80.0002L196.264 79.2931L195.557 80.0002L196.264 80.7073L196.971 80.0002Z" fill="#F47C7C"/>
<path d="M205.86 80.0002L205.153 79.2931L204.446 80.0002L205.153 80.7073L205.86 80.0002Z" fill="#F47C7C"/>
<path d="M214.749 80.0002L214.042 79.2931L213.334 80.0002L214.042 80.7073L214.749 80.0002Z" fill="#F47C7C"/>
<path d="M223.637 80.0002L222.93 79.2931L222.223 80.0002L222.93 80.7073L223.637 80.0002Z" fill="#F47C7C"/>
<path d="M232.526 80.0002L231.819 79.2931L231.112 80.0002L231.819 80.7073L232.526 80.0002Z" fill="#F47C7C"/>
<path d="M241.415 80.0002L240.708 79.2931L240.001 80.0002L240.708 80.7073L241.415 80.0002Z" fill="#F47C7C"/>
<path d="M250.304 80.0002L249.597 79.2931L248.89 80.0002L249.597 80.7073L250.304 80.0002Z" fill="#F47C7C"/>
<path d="M90.3042 88.889L89.5971 88.1819L88.89 88.889L89.5971 89.5961L90.3042 88.889Z" fill="#F47C7C"/>
<path d="M99.1931 88.889L98.486 88.1819L97.7789 88.889L98.486 89.5961L99.1931 88.889Z" fill="#F47C7C"/>
<path d="M108.082 88.889L107.375 88.1819L106.668 88.889L107.375 89.5961L108.082 88.889Z" fill="#F47C7C"/>
<path d="M116.971 88.889L116.264 88.1819L115.557 88.889L116.264 89.5961L116.971 88.889Z" fill="#F47C7C"/>
<path d="M125.86 88.889L125.153 88.1819L124.446 88.889L125.153 89.5961L125.86 88.889Z" fill="#F47C7C"/>
<path d="M134.749 88.889L134.042 88.1819L133.334 88.889L134.042 89.5961L134.749 88.889Z" fill="#F47C7C"/>
<path d="M143.638 88.889L142.93 88.1819L142.223 88.889L142.93 89.5961L143.638 88.889Z" fill="#F47C7C"/>
<path d="M152.526 88.889L151.819 88.1819L151.112 88.889L151.819 89.5961L152.526 88.889Z" fill="#F47C7C"/>
<path d="M161.415 88.889L160.708 88.1819L160.001 88.889L160.708 89.5961L161.415 88.889Z" fill="#F47C7C"/>
<path d="M170.304 88.889L169.597 88.1819L168.89 88.889L169.597 89.5961L170.304 88.889Z" fill="#F47C7C"/>
<path d="M179.193 88.889L178.486 88.1819L177.779 88.889L178.486 89.5961L179.193 88.889Z" fill="#F47C7C"/>
<path d="M188.082 88.889L187.375 88.1819L186.668 88.889L187.375 89.5961L188.082 88.889Z" fill="#F47C7C"/>
<path d="M196.971 88.889L196.264 88.1819L195.557 88.889L196.264 89.5961L196.971 88.889Z" fill="#F47C7C"/>
<path d="M205.86 88.889L205.153 88.1819L204.446 88.889L205.153 89.5961L205.86 88.889Z" fill="#F47C7C"/>
<path d="M214.749 88.889L214.042 88.1819L213.334 88.889L214.042 89.5961L214.749 88.889Z" fill="#F47C7C"/>
<path d="M223.637 88.889L222.93 88.1819L222.223 88.889L222.93 89.5961L223.637 88.889Z" fill="#F47C7C"/>
<path d="M232.526 88.889L231.819 88.1819L231.112 88.889L231.819 89.5961L232.526 88.889Z" fill="#F47C7C"/>
<path d="M241.415 88.889L240.708 88.1819L240.001 88.889L240.708 89.5961L241.415 88.889Z" fill="#F47C7C"/>
<path d="M250.304 88.889L249.597 88.1819L248.89 88.889L249.597 89.5961L250.304 88.889Z" fill="#F47C7C"/>
<path d="M90.3042 97.7778L89.5971 97.0707L88.89 97.7778L89.5971 98.4849L90.3042 97.7778Z" fill="#F47C7C"/>
<path d="M99.1931 97.7778L98.486 97.0707L97.7789 97.7778L98.486 98.4849L99.1931 97.7778Z" fill="#F47C7C"/>
<path d="M108.082 97.7778L107.375 97.0707L106.668 97.7778L107.375 98.4849L108.082 97.7778Z" fill="#F47C7C"/>
<path d="M116.971 97.7778L116.264 97.0707L115.557 97.7778L116.264 98.4849L116.971 97.7778Z" fill="#F47C7C"/>
<path d="M125.86 97.7778L125.153 97.0707L124.446 97.7778L125.153 98.4849L125.86 97.7778Z" fill="#F47C7C"/>
<path d="M134.749 97.7778L134.042 97.0707L133.334 97.7778L134.042 98.4849L134.749 97.7778Z" fill="#F47C7C"/>
<path d="M143.638 97.7778L142.93 97.0707L142.223 97.7778L142.93 98.4849L143.638 97.7778Z" fill="#F47C7C"/>
<path d="M152.526 97.7778L151.819 97.0707L151.112 97.7778L151.819 98.4849L152.526 97.7778Z" fill="#F47C7C"/>
<path d="M161.415 97.7778L160.708 97.0707L160.001 97.7778L160.708 98.4849L161.415 97.7778Z" fill="#F47C7C"/>
<path d="M170.304 97.7778L169.597 97.0707L168.89 97.7778L169.597 98.4849L170.304 97.7778Z" fill="#F47C7C"/>
<path d="M179.193 97.7778L178.486 97.0707L177.779 97.7778L178.486 98.4849L179.193 97.7778Z" fill="#F47C7C"/>
<path d="M188.082 97.7778L187.375 97.0707L186.668 97.7778L187.375 98.4849L188.082 97.7778Z" fill="#F47C7C"/>
<path d="M196.971 97.7778L196.264 97.0707L195.557 97.7778L196.264 98.4849L196.971 97.7778Z" fill="#F47C7C"/>
<path d="M205.86 97.7778L205.153 97.0707L204.446 97.7778L205.153 98.4849L205.86 97.7778Z" fill="#F47C7C"/>
<path d="M214.749 97.7778L214.042 97.0707L213.334 97.7778L214.042 98.4849L214.749 97.7778Z" fill="#F47C7C"/>
<path d="M223.637 97.7778L222.93 97.0707L222.223 97.7778L222.93 98.4849L223.637 97.7778Z" fill="#F47C7C"/>
<path d="M232.526 97.7778L231.819 97.0707L231.112 97.7778L231.819 98.4849L232.526 97.7778Z" fill="#F47C7C"/>
<path d="M241.415 97.7778L240.708 97.0707L240.001 97.7778L240.708 98.4849L241.415 97.7778Z" fill="#F47C7C"/>
<path d="M250.304 97.7778L249.597 97.0707L248.89 97.7778L249.597 98.4849L250.304 97.7778Z" fill="#F47C7C"/>
<path d="M90.3042 106.667L89.5971 105.96L88.89 106.667L89.5971 107.374L90.3042 106.667Z" fill="#F47C7C"/>
<path d="M99.1931 106.667L98.486 105.96L97.7789 106.667L98.486 107.374L99.1931 106.667Z" fill="#F47C7C"/>
<path d="M108.082 106.667L107.375 105.96L106.668 106.667L107.375 107.374L108.082 106.667Z" fill="#F47C7C"/>
<path d="M116.971 106.667L116.264 105.96L115.557 106.667L116.264 107.374L116.971 106.667Z" fill="#F47C7C"/>
<path d="M125.86 106.667L125.153 105.96L124.446 106.667L125.153 107.374L125.86 106.667Z" fill="#F47C7C"/>
<path d="M134.749 106.667L134.042 105.96L133.334 106.667L134.042 107.374L134.749 106.667Z" fill="#F47C7C"/>
<path d="M143.638 106.667L142.93 105.96L142.223 106.667L142.93 107.374L143.638 106.667Z" fill="#F47C7C"/>
<path d="M152.526 106.667L151.819 105.96L151.112 106.667L151.819 107.374L152.526 106.667Z" fill="#F47C7C"/>
<path d="M161.415 106.667L160.708 105.96L160.001 106.667L160.708 107.374L161.415 106.667Z" fill="#F47C7C"/>
<path d="M170.304 106.667L169.597 105.96L168.89 106.667L169.597 107.374L170.304 106.667Z" fill="#F47C7C"/>
<path d="M179.193 106.667L178.486 105.96L177.779 106.667L178.486 107.374L179.193 106.667Z" fill="#F47C7C"/>
<path d="M188.082 106.667L187.375 105.96L186.668 106.667L187.375 107.374L188.082 106.667Z" fill="#F47C7C"/>
<path d="M196.971 106.667L196.264 105.96L195.557 106.667L196.264 107.374L196.971 106.667Z" fill="#F47C7C"/>
<path d="M205.86 106.667L205.153 105.96L204.446 106.667L205.153 107.374L205.86 106.667Z" fill="#F47C7C"/>
<path d="M214.749 106.667L214.042 105.96L213.334 106.667L214.042 107.374L214.749 106.667Z" fill="#F47C7C"/>
<path d="M223.637 106.667L222.93 105.96L222.223 106.667L222.93 107.374L223.637 106.667Z" fill="#F47C7C"/>
<path d="M232.526 106.667L231.819 105.96L231.112 106.667L231.819 107.374L232.526 106.667Z" fill="#F47C7C"/>
<path d="M241.415 106.667L240.708 105.96L240.001 106.667L240.708 107.374L241.415 106.667Z" fill="#F47C7C"/>
<path d="M250.304 106.667L249.597 105.96L248.89 106.667L249.597 107.374L250.304 106.667Z" fill="#F47C7C"/>
<path d="M90.3042 115.556L89.5971 114.849L88.89 115.556L89.5971 116.263L90.3042 115.556Z" fill="#F47C7C"/>
<path d="M99.1931 115.556L98.486 114.849L97.7789 115.556L98.486 116.263L99.1931 115.556Z" fill="#F47C7C"/>
<path d="M108.082 115.556L107.375 114.849L106.668 115.556L107.375 116.263L108.082 115.556Z" fill="#F47C7C"/>
<path d="M116.971 115.556L116.264 114.849L115.557 115.556L116.264 116.263L116.971 115.556Z" fill="#F47C7C"/>
<path d="M125.86 115.556L125.153 114.849L124.446 115.556L125.153 116.263L125.86 115.556Z" fill="#F47C7C"/>
<path d="M134.749 115.556L134.042 114.849L133.334 115.556L134.042 116.263L134.749 115.556Z" fill="#F47C7C"/>
<path d="M143.638 115.556L142.93 114.849L142.223 115.556L142.93 116.263L143.638 115.556Z" fill="#F47C7C"/>
<path d="M152.526 115.556L151.819 114.849L151.112 115.556L151.819 116.263L152.526 115.556Z" fill="#F47C7C"/>
<path d="M161.415 115.556L160.708 114.849L160.001 115.556L160.708 116.263L161.415 115.556Z" fill="#F47C7C"/>
<path d="M170.304 115.556L169.597 114.849L168.89 115.556L169.597 116.263L170.304 115.556Z" fill="#F47C7C"/>
<path d="M179.193 115.556L178.486 114.849L177.779 115.556L178.486 116.263L179.193 115.556Z" fill="#F47C7C"/>
<path d="M188.082 115.556L187.375 114.849L186.668 115.556L187.375 116.263L188.082 115.556Z" fill="#F47C7C"/>
<path d="M196.971 115.556L196.264 114.849L195.557 115.556L196.264 116.263L196.971 115.556Z" fill="#F47C7C"/>
<path d="M205.86 115.556L205.153 114.849L204.446 115.556L205.153 116.263L205.86 115.556Z" fill="#F47C7C"/>
<path d="M214.749 115.556L214.042 114.849L213.334 115.556L214.042 116.263L214.749 115.556Z" fill="#F47C7C"/>
<path d="M223.637 115.556L222.93 114.849L222.223 115.556L222.93 116.263L223.637 115.556Z" fill="#F47C7C"/>
<path d="M232.526 115.556L231.819 114.849L231.112 115.556L231.819 116.263L232.526 115.556Z" fill="#F47C7C"/>
<path d="M241.415 115.556L240.708 114.849L240.001 115.556L240.708 116.263L241.415 115.556Z" fill="#F47C7C"/>
<path d="M250.304 115.556L249.597 114.849L248.89 115.556L249.597 116.263L250.304 115.556Z" fill="#F47C7C"/>
<path d="M90.3042 124.444L89.5971 123.737L88.89 124.444L89.5971 125.152L90.3042 124.444Z" fill="#F47C7C"/>
<path d="M99.1931 124.444L98.486 123.737L97.7789 124.444L98.486 125.152L99.1931 124.444Z" fill="#F47C7C"/>
<path d="M108.082 124.444L107.375 123.737L106.668 124.444L107.375 125.152L108.082 124.444Z" fill="#F47C7C"/>
<path d="M116.971 124.444L116.264 123.737L115.557 124.444L116.264 125.152L116.971 124.444Z" fill="#F47C7C"/>
<path d="M125.86 124.444L125.153 123.737L124.446 124.444L125.153 125.152L125.86 124.444Z" fill="#F47C7C"/>
<path d="M134.749 124.444L134.042 123.737L133.334 124.444L134.042 125.152L134.749 124.444Z" fill="#F47C7C"/>
<path d="M143.638 124.444L142.93 123.737L142.223 124.444L142.93 125.152L143.638 124.444Z" fill="#F47C7C"/>
<path d="M152.526 124.444L151.819 123.737L151.112 124.444L151.819 125.152L152.526 124.444Z" fill="#F47C7C"/>
<path d="M161.415 124.444L160.708 123.737L160.001 124.444L160.708 125.152L161.415 124.444Z" fill="#F47C7C"/>
<path d="M170.304 124.444L169.597 123.737L168.89 124.444L169.597 125.152L170.304 124.444Z" fill="#F47C7C"/>
<path d="M179.193 124.444L178.486 123.737L177.779 124.444L178.486 125.152L179.193 124.444Z" fill="#F47C7C"/>
<path d="M188.082 124.444L187.375 123.737L186.668 124.444L187.375 125.152L188.082 124.444Z" fill="#F47C7C"/>
<path d="M196.971 124.444L196.264 123.737L195.557 124.444L196.264 125.152L196.971 124.444Z" fill="#F47C7C"/>
<path d="M205.86 124.444L205.153 123.737L204.446 124.444L205.153 125.152L205.86 124.444Z" fill="#F47C7C"/>
<path d="M214.749 124.444L214.042 123.737L213.334 124.444L214.042 125.152L214.749 124.444Z" fill="#F47C7C"/>
<path d="M223.637 124.444L222.93 123.737L222.223 124.444L222.93 125.152L223.637 124.444Z" fill="#F47C7C"/>
<path d="M232.526 124.444L231.819 123.737L231.112 124.444L231.819 125.152L232.526 124.444Z" fill="#F47C7C"/>
<path d="M241.415 124.444L240.708 123.737L240.001 124.444L240.708 125.152L241.415 124.444Z" fill="#F47C7C"/>
<path d="M250.304 124.444L249.597 123.737L248.89 124.444L249.597 125.152L250.304 124.444Z" fill="#F47C7C"/>
<path d="M90.3042 133.334L89.5971 132.626L88.89 133.334L89.5971 134.041L90.3042 133.334Z" fill="#F47C7C"/>
<path d="M99.1931 133.334L98.486 132.626L97.7789 133.334L98.486 134.041L99.1931 133.334Z" fill="#F47C7C"/>
<path d="M108.082 133.334L107.375 132.626L106.668 133.334L107.375 134.041L108.082 133.334Z" fill="#F47C7C"/>
<path d="M116.971 133.334L116.264 132.626L115.557 133.334L116.264 134.041L116.971 133.334Z" fill="#F47C7C"/>
<path d="M125.86 133.334L125.153 132.626L124.446 133.334L125.153 134.041L125.86 133.334Z" fill="#F47C7C"/>
<path d="M134.749 133.334L134.042 132.626L133.334 133.334L134.042 134.041L134.749 133.334Z" fill="#F47C7C"/>
<path d="M143.638 133.334L142.93 132.626L142.223 133.334L142.93 134.041L143.638 133.334Z" fill="#F47C7C"/>
<path d="M152.526 133.334L151.819 132.626L151.112 133.334L151.819 134.041L152.526 133.334Z" fill="#F47C7C"/>
<path d="M161.415 133.334L160.708 132.626L160.001 133.334L160.708 134.041L161.415 133.334Z" fill="#F47C7C"/>
<path d="M170.304 133.334L169.597 132.626L168.89 133.334L169.597 134.041L170.304 133.334Z" fill="#F47C7C"/>
<path d="M179.193 133.334L178.486 132.626L177.779 133.334L178.486 134.041L179.193 133.334Z" fill="#F47C7C"/>
<path d="M188.082 133.334L187.375 132.626L186.668 133.334L187.375 134.041L188.082 133.334Z" fill="#F47C7C"/>
<path d="M196.971 133.334L196.264 132.626L195.557 133.334L196.264 134.041L196.971 133.334Z" fill="#F47C7C"/>
<path d="M205.86 133.334L205.153 132.626L204.446 133.334L205.153 134.041L205.86 133.334Z" fill="#F47C7C"/>
<path d="M214.749 133.334L214.042 132.626L213.334 133.334L214.042 134.041L214.749 133.334Z" fill="#F47C7C"/>
<path d="M223.637 133.334L222.93 132.626L222.223 133.334L222.93 134.041L223.637 133.334Z" fill="#F47C7C"/>
<path d="M232.526 133.334L231.819 132.626L231.112 133.334L231.819 134.041L232.526 133.334Z" fill="#F47C7C"/>
<path d="M241.415 133.334L240.708 132.626L240.001 133.334L240.708 134.041L241.415 133.334Z" fill="#F47C7C"/>
<path d="M250.304 133.334L249.597 132.626L248.89 133.334L249.597 134.041L250.304 133.334Z" fill="#F47C7C"/>
<path d="M90.3042 142.222L89.5971 141.515L88.89 142.222L89.5971 142.929L90.3042 142.222Z" fill="#F47C7C"/>
<path d="M99.1931 142.222L98.486 141.515L97.7789 142.222L98.486 142.929L99.1931 142.222Z" fill="#F47C7C"/>
<path d="M108.082 142.222L107.375 141.515L106.668 142.222L107.375 142.929L108.082 142.222Z" fill="#F47C7C"/>
<path d="M116.971 142.222L116.264 141.515L115.557 142.222L116.264 142.929L116.971 142.222Z" fill="#F47C7C"/>
<path d="M125.86 142.222L125.153 141.515L124.446 142.222L125.153 142.929L125.86 142.222Z" fill="#F47C7C"/>
<path d="M134.749 142.222L134.042 141.515L133.334 142.222L134.042 142.929L134.749 142.222Z" fill="#F47C7C"/>
<path d="M143.638 142.222L142.93 141.515L142.223 142.222L142.93 142.929L143.638 142.222Z" fill="#F47C7C"/>
<path d="M152.526 142.222L151.819 141.515L151.112 142.222L151.819 142.929L152.526 142.222Z" fill="#F47C7C"/>
<path d="M161.415 142.222L160.708 141.515L160.001 142.222L160.708 142.929L161.415 142.222Z" fill="#F47C7C"/>
<path d="M170.304 142.222L169.597 141.515L168.89 142.222L169.597 142.929L170.304 142.222Z" fill="#F47C7C"/>
<path d="M179.193 142.222L178.486 141.515L177.779 142.222L178.486 142.929L179.193 142.222Z" fill="#F47C7C"/>
<path d="M188.082 142.222L187.375 141.515L186.668 142.222L187.375 142.929L188.082 142.222Z" fill="#F47C7C"/>
<path d="M196.971 142.222L196.264 141.515L195.557 142.222L196.264 142.929L196.971 142.222Z" fill="#F47C7C"/>
<path d="M205.86 142.222L205.153 141.515L204.446 142.222L205.153 142.929L205.86 142.222Z" fill="#F47C7C"/>
<path d="M214.749 142.222L214.042 141.515L213.334 142.222L214.042 142.929L214.749 142.222Z" fill="#F47C7C"/>
<path d="M223.637 142.222L222.93 141.515L222.223 142.222L222.93 142.929L223.637 142.222Z" fill="#F47C7C"/>
<path d="M232.526 142.222L231.819 141.515L231.112 142.222L231.819 142.929L232.526 142.222Z" fill="#F47C7C"/>
<path d="M241.415 142.222L240.708 141.515L240.001 142.222L240.708 142.929L241.415 142.222Z" fill="#F47C7C"/>
<path d="M250.304 142.222L249.597 141.515L248.89 142.222L249.597 142.929L250.304 142.222Z" fill="#F47C7C"/>
<path d="M90.3042 151.111L89.5971 150.404L88.89 151.111L89.5971 151.818L90.3042 151.111Z" fill="#F47C7C"/>
<path d="M99.1931 151.111L98.486 150.404L97.7789 151.111L98.486 151.818L99.1931 151.111Z" fill="#F47C7C"/>
<path d="M108.082 151.111L107.375 150.404L106.668 151.111L107.375 151.818L108.082 151.111Z" fill="#F47C7C"/>
<path d="M116.971 151.111L116.264 150.404L115.557 151.111L116.264 151.818L116.971 151.111Z" fill="#F47C7C"/>
<path d="M125.86 151.111L125.153 150.404L124.446 151.111L125.153 151.818L125.86 151.111Z" fill="#F47C7C"/>
<path d="M134.749 151.111L134.042 150.404L133.334 151.111L134.042 151.818L134.749 151.111Z" fill="#F47C7C"/>
<path d="M143.638 151.111L142.93 150.404L142.223 151.111L142.93 151.818L143.638 151.111Z" fill="#F47C7C"/>
<path d="M152.526 151.111L151.819 150.404L151.112 151.111L151.819 151.818L152.526 151.111Z" fill="#F47C7C"/>
<path d="M161.415 151.111L160.708 150.404L160.001 151.111L160.708 151.818L161.415 151.111Z" fill="#F47C7C"/>
<path d="M170.304 151.111L169.597 150.404L168.89 151.111L169.597 151.818L170.304 151.111Z" fill="#F47C7C"/>
<path d="M179.193 151.111L178.486 150.404L177.779 151.111L178.486 151.818L179.193 151.111Z" fill="#F47C7C"/>
<path d="M188.082 151.111L187.375 150.404L186.668 151.111L187.375 151.818L188.082 151.111Z" fill="#F47C7C"/>
<path d="M196.971 151.111L196.264 150.404L195.557 151.111L196.264 151.818L196.971 151.111Z" fill="#F47C7C"/>
<path d="M205.86 151.111L205.153 150.404L204.446 151.111L205.153 151.818L205.86 151.111Z" fill="#F47C7C"/>
<path d="M214.749 151.111L214.042 150.404L213.334 151.111L214.042 151.818L214.749 151.111Z" fill="#F47C7C"/>
<path d="M223.637 151.111L222.93 150.404L222.223 151.111L222.93 151.818L223.637 151.111Z" fill="#F47C7C"/>
<path d="M232.526 151.111L231.819 150.404L231.112 151.111L231.819 151.818L232.526 151.111Z" fill="#F47C7C"/>
<path d="M241.415 151.111L240.708 150.404L240.001 151.111L240.708 151.818L241.415 151.111Z" fill="#F47C7C"/>
<path d="M250.304 151.111L249.597 150.404L248.89 151.111L249.597 151.818L250.304 151.111Z" fill="#F47C7C"/>
<path d="M90.3042 160L89.5971 159.293L88.89 160L89.5971 160.707L90.3042 160Z" fill="#F47C7C"/>
<path d="M99.1931 160L98.486 159.293L97.7789 160L98.486 160.707L99.1931 160Z" fill="#F47C7C"/>
<path d="M108.082 160L107.375 159.293L106.668 160L107.375 160.707L108.082 160Z" fill="#F47C7C"/>
<path d="M116.971 160L116.264 159.293L115.557 160L116.264 160.707L116.971 160Z" fill="#F47C7C"/>
<path d="M125.86 160L125.153 159.293L124.446 160L125.153 160.707L125.86 160Z" fill="#F47C7C"/>
<path d="M134.749 160L134.042 159.293L133.334 160L134.042 160.707L134.749 160Z" fill="#F47C7C"/>
<path d="M143.638 160L142.93 159.293L142.223 160L142.93 160.707L143.638 160Z" fill="#F47C7C"/>
<path d="M152.526 160L151.819 159.293L151.112 160L151.819 160.707L152.526 160Z" fill="#F47C7C"/>
<path d="M161.415 160L160.708 159.293L160.001 160L160.708 160.707L161.415 160Z" fill="#F47C7C"/>
<path d="M170.304 160L169.597 159.293L168.89 160L169.597 160.707L170.304 160Z" fill="#F47C7C"/>
<path d="M179.193 160L178.486 159.293L177.779 160L178.486 160.707L179.193 160Z" fill="#F47C7C"/>
<path d="M188.082 160L187.375 159.293L186.668 160L187.375 160.707L188.082 160Z" fill="#F47C7C"/>
<path d="M196.971 160L196.264 159.293L195.557 160L196.264 160.707L196.971 160Z" fill="#F47C7C"/>
<path d="M205.86 160L205.153 159.293L204.446 160L205.153 160.707L205.86 160Z" fill="#F47C7C"/>
<path d="M214.749 160L214.042 159.293L213.334 160L214.042 160.707L214.749 160Z" fill="#F47C7C"/>
<path d="M223.637 160L222.93 159.293L222.223 160L222.93 160.707L223.637 160Z" fill="#F47C7C"/>
<path d="M232.526 160L231.819 159.293L231.112 160L231.819 160.707L232.526 160Z" fill="#F47C7C"/>
<path d="M241.415 160L240.708 159.293L240.001 160L240.708 160.707L241.415 160Z" fill="#F47C7C"/>
<path d="M250.304 160L249.597 159.293L248.89 160L249.597 160.707L250.304 160Z" fill="#F47C7C"/>
</g>
<defs>
<clipPath id="clip0_104_3529">
<rect width="250" height="160" fill="white"/>
</clipPath>
</defs>
</svg>
