<svg viewBox="0 0 1024 1024" xmlns="http://www.w3.org/2000/svg">
  <path fill="currentColor" d="M362.666667 640a32 32 0 0 1 0-64h170.666666a32 32 0 0 1 0 64h-170.666666z m0-192a32 32 0 0 1 0-64h298.666666a32 32 0 0 1 0 64H362.666667z m455.786666 390.784l28.096 60.586667A42.666667 42.666667 0 0 1 807.850667 960H512C264.576 960 64 759.424 64 512S264.576 64 512 64s448 200.576 448 448a446.762667 446.762667 0 0 1-141.546667 326.784zM512 896h262.442667l-14.037334-30.293333a64 64 0 0 1 14.272-73.6A382.698667 382.698667 0 0 0 896 512c0-212.074667-171.925333-384-384-384S128 299.925333 128 512s171.925333 384 384 384z"/>
</svg>
